/* XPM */
static char *result[] = {
/* columns rows colors chars-per-pixel */
"64 64 256 2 ",
"   c #390101",
".  c #3F1706",
"X  c #1B0E11",
"o  c #4C0000",
"O  c #460301",
"+  c #560300",
"@  c #581B01",
"#  c #4E140A",
"$  c #610000",
"%  c #681800",
"&  c #731306",
"*  c #542401",
"=  c #5A2904",
"-  c #5C3615",
";  c #542B0F",
":  c #662901",
">  c #732C01",
",  c #643402",
"<  c #6C3C01",
"1  c #683708",
"2  c #763804",
"3  c #643B13",
"4  c #6B3D13",
"5  c #653A19",
"6  c #733D15",
"7  c #672B16",
"8  c #543429",
"9  c #653A26",
"0  c #783C2B",
"q  c #6C4207",
"w  c #784706",
"e  c #7B5305",
"r  c #6C4314",
"t  c #6D441C",
"y  c #674418",
"u  c #744513",
"i  c #724519",
"p  c #744A1B",
"a  c #7A4D1B",
"s  c #774915",
"d  c #7D521C",
"f  c #7B5316",
"g  c #6B4624",
"h  c #744B23",
"j  c #754B25",
"k  c #7B5325",
"l  c #785529",
"z  c #795835",
"x  c #6E4D36",
"c  c #7E623D",
"v  c #5A4331",
"b  c #775B46",
"n  c #6F4D43",
"m  c #7A644A",
"M  c #543E4A",
"N  c #881200",
"B  c #863A04",
"V  c #8F3204",
"C  c #833E20",
"Z  c #864902",
"A  c #964602",
"S  c #875504",
"D  c #975804",
"F  c #844B16",
"G  c #845314",
"H  c #83541C",
"J  c #835A1C",
"K  c #8A5C1C",
"L  c #8A5816",
"P  c #965819",
"I  c #964E16",
"U  c #A55B06",
"Y  c #AF5109",
"T  c #9A6704",
"R  c #98641A",
"E  c #906718",
"W  c #A76405",
"Q  c #B56A00",
"!  c #A56719",
"~  c #AA741B",
"^  c #B77212",
"/  c #834C26",
"(  c #825523",
")  c #845B24",
"_  c #8B5C23",
"`  c #835C2C",
"'  c #885A2A",
"]  c #965C26",
"[  c #835C33",
"{  c #835C3A",
"}  c #945C32",
"|  c #8C632B",
" . c #896528",
".. c #946323",
"X. c #9C6B24",
"o. c #93662B",
"O. c #9C6D2C",
"+. c #976828",
"@. c #9A732A",
"#. c #8B6433",
"$. c #896638",
"%. c #936A33",
"&. c #9C6D32",
"*. c #936B3A",
"=. c #946735",
"-. c #9B7334",
";. c #9C733B",
":. c #987739",
">. c #8C743E",
",. c #A46C23",
"<. c #A66C28",
"1. c #A2732C",
"2. c #A8772A",
"3. c #B57828",
"4. c #A37434",
"5. c #A47B33",
"6. c #AB7C34",
"7. c #A37B3C",
"8. c #AB7C3B",
"9. c #A77439",
"0. c #B37C33",
"q. c #B87C36",
"w. c #AE6D2C",
"e. c #A25A23",
"r. c #C87511",
"t. c #C67A2C",
"y. c #C45200",
"u. c #835B42",
"i. c #896A46",
"p. c #956D46",
"a. c #947444",
"s. c #9B7C4B",
"d. c #997747",
"f. c #987B56",
"g. c #8A7151",
"h. c #A47B43",
"j. c #A67B48",
"k. c #AD784D",
"l. c #8F7667",
"z. c #A67766",
"x. c #B68608",
"c. c #B9832D",
"v. c #A98339",
"b. c #B88639",
"n. c #B59731",
"m. c #9F8639",
"M. c #CF8C13",
"N. c #C78628",
"B. c #D48929",
"V. c #C78A39",
"C. c #C6973A",
"Z. c #D49432",
"A. c #E79A2F",
"S. c #CFA63A",
"D. c #EFAD33",
"F. c #E29300",
"G. c #9A8458",
"H. c #9E8047",
"J. c #A98548",
"K. c #B68946",
"L. c #B99449",
"P. c #AD8B53",
"I. c #A68757",
"U. c #B48B54",
"Y. c #AC9458",
"T. c #B89758",
"R. c #AB934A",
"E. c #BCA259",
"W. c #9B8565",
"Q. c #988972",
"!. c #A78A65",
"~. c #AD9468",
"^. c #B59866",
"/. c #AA9677",
"(. c #B69C76",
"). c #A78B6F",
"_. c #B9A16B",
"`. c #BAA577",
"'. c #B7AA7E",
"]. c #C48C45",
"[. c #C89647",
"{. c #D69A47",
"}. c #C59956",
"|. c #D79C57",
" X c #CAA34B",
".X c #D6A549",
"XX c #CAA558",
"oX c #D7A755",
"OX c #D8B558",
"+X c #D5B151",
"@X c #E6A84B",
"#X c #E6B558",
"$X c #F5BA59",
"%X c #EEB150",
"&X c #C59C6A",
"*X c #C9A766",
"=X c #D9B76A",
"-X c #C4A777",
";X c #C6B379",
":X c #D8B978",
">X c #D2AE6B",
",X c #E9B664",
"<X c #EDB86D",
"1X c #E69C45",
"2X c #F9C45A",
"3X c #F0C755",
"4X c #DAC379",
"5X c #D1C46D",
"6X c #E9C469",
"7X c #F7C969",
"8X c #FBD56A",
"9X c #E7C677",
"0X c #F5CA76",
"qX c #FBD473",
"wX c #FDDB74",
"eX c #FAD87B",
"rX c #EBD677",
"tX c #FCE37C",
"yX c #FEE778",
"uX c #FFF47A",
"iX c #DAC251",
"pX c #B39B84",
"aX c #A99887",
"sX c #BAA88A",
"dX c #BBAE98",
"fX c #B7B3A8",
"gX c #958985",
"hX c #C7AA88",
"jX c #C9B687",
"kX c #D6BA87",
"lX c #C7B798",
"zX c #CEB499",
"xX c #CABBAB",
"cX c #DAAB8A",
"vX c #D6C386",
"bX c #D8C599",
"nX c #CDC396",
"mX c #E5C68A",
"MX c #F8D885",
"NX c #EFD491",
"BX c #FCE483",
"VX c #FCE889",
"CX c #FDF18C",
"ZX c #FBE696",
"AX c #FEF497",
"SX c #D8C8B6",
"DX c #D4C8AE",
"FX c #E7D8A8",
"GX c #E7D5B2",
"HX c #FAE7A6",
"JX c #F8E8B8",
"KX c #FBF1B3",
"LX c #F8F3CF",
"PX c #FEFEEA",
"IX c #DCD6C4",
"UX c None",
/* pixels */
"PXnXe   +.c.2.w.V.3.3.V.@X#X#.fXSX&X[ # ,.Z.Q u K L s g.FX>XQ |.$X{.N.N.Z k S U.vXH...R +.i 4.o.Z I.LXHXtXwXqX%XNXAXCXAXCXCXCXCX",
"mX>Xa.3 H d f L ,.Z *X:X*Xc.xXlX:X9XbXj `.HX=X*X}.$.% 6.<X@Xt.].1XV.Z.@X>XE.5.+.s.[ w Z G Z oXT.L.,XHXMXwXqXMXZXMXeXtXVXVXBXVXCX",
"B._.G.= i   k 6.b.R T.~.G.N.xXxXpXT.GXpXpXsXXX<XoX6.B ..#X7X#XoX|.=X,X0XFXT.,.F @ > /.Q.#.h.oX}.*XwXBXwX7XrXMXMX8XMXZXMXeXqXeXVX",
"_.^.i.+ - ; 7.oXoXc.e : d.:Xj.fXfXM aXSXaXX 3 .X>X}.! 8 jXNXMXoX,X9XBXZXGXz.&.:.$.% lXsXi.^.'.U.+XeXVXVXMXqX7X@X7XZXJXeXqXqXqXtX",
"E.l , y O :.}..Xb.o.S O.-XDXn m ;X>X+ xXfXz *.[.SXDXk.O pXJXZXW [.,X7XCXKXfX/.XX*X# c o.H l.SXhXD.yXCXKXHXyXVXeX0X<X<X,XqXeXBXwX",
"l f r r q @.x.XXlXsXT.T.~.i.z T.U.x &.^.Y.i.g 2 ^.DXxXy.<XZXVX2XoX].C.kXKXMX.Xv.x + G.I.8.=X).[.3XtXBXMXeXqXeXqX#X1X<X<XMX8X7XBX",
"* 3 f J z bX*X2.W.W.h.7.*.S @.v.o.: J ,.^./.g j.o.pXSXmXNXCXwXD.A.N.r.].-Xv.! <.q.&X>X{.r.{.> 3.,XwXeX7X$X,XwXwX#X|.<XMXqX0X0XeX",
") f w f J.bX-Xw * e S L @.J.@.f E X.: l )./.[ Y.#.b `.ZXHXCX8XD.A.t.r.Y & % % P {.$X|.B.r.B.e.{.7XyXwXqX6X$XqXqX$X#X<XMX0X0XqX8X",
"c.@.i p C.2.G s L X.e -.T.T.+.e +.3.a y < Z ;.g.a.l S .X3XeXtX8XA.V.V.0.U.].} 2 w.r.y.r.D.$X%X$X8X8XwXwXwX7X7X7X7X$X,X<XZXMXqX7X",
"  l :.v.q i K E ..H e T.:Xb.~ E E E u r f R ..i.$.s w =.+ dXJXyX7X7X8XwXHXDXz.N } r.A.1X%X2X$X$X3X8XwX8X7X7X7X7X$X%X<X0XMXBXeXBX",
"g S _.lXgXX G 8.+.7.v.L.>X:XNX*Xx.Z. .3 H 1.K._.:.L H S U kXJXLXwXyXVXCXKXZX:Xk.e.%X%X$X7X0X2X2XBXJX8X7XqX7X2XZX0X@X<XeXeXwXBXBX",
"p e f.pXlXsXE.O.L n.7.E b.9XmXmX9X=XJ + X.S.L.H. .f G ! OXeXZXHXVXwXeXVXKXKXMXL.W ,X1X$X0XeX$XD.ZXPXZX8X7X7X0X0X,X@X<X0XoX+X6X2X",
": i.g s *XVX5XJ.:.b.L p.}.{.S.9XmX*X2 $ _.4Xn., 3 y f M.eXVXyXyXCXqX3XqXKXKXMX X^ V.#X6X6XqX@XF.mXLXHX7X3X0XMX1XA.0XZX*X6 Z t.Z.",
"w _._.z c % Y.vXkX8 B >XNXU.+X{.3.Z q x nXFXx.&.o.:.v.N.rXCXBX7XMXqX7X7XwXyXeX#XV.B.MXZXMX%X].Q |.MX4XoX2X8X$X$X2XZXIXM   o .. X",
"E l x l l A H.'.vX`.{ 6 J.;X=X].r.}. Xb.OX5XF > _.bXDXJXBX8X7X3XwXwX6X%X8XqX8X$X{.B.FXbX}.c.{.V.b.oX%XB.A.%X.X%X%X[.b 7 @ P 0.6.",
"J s r e _ T | G.E.g.l , f J.K...R [.,XN.n. Xd.@.E.`./.FXVXwX7X6X7X6X7X0XtXwX8X3X].*XkX_.! 2.b.[.[.C.S.t.3.^ Q A.{.+.  | 9.0.3.,.",
"r < f  .@.R w k %.w @.5.K Z > # f b.oXY I.'._.v.b.Q Q =XeXeX8X7X7X7XrXVXtXwX8X2XV.&XT.&.S 4.X.].{.[.b.t.I 0 ).pXk./ g 9.b.6.6.b.",
"q x >.v.@.R F * q J.[.b.! e.K ( R 3.x.N z.sX'.+.! w.r.S.7XqX0X7X7XqXtXBXqXqXwX7X{.0.2.1.o.O.K 9.|.oX&.].Y l.xXxXl.> =.o.' o.b..X",
"~ jXsXz w N.R = ` 4XG.7 ,.OX3XOXb.D M.! 4 y d 2.,.Y W C.8XwXwXwX$X$X7X2X7XZXZX0XZ.6.[.oXoX[.f J K.{.&.N.Q hXPXdX/ & 9 * @ r O.V.",
"L.T.s.G T iXm.O 7.:Xq.N ! 3X XO.3 L Z.t.&X-XQ V.w.A T @XHXAXtXeX7X7X0XrXqXAXVXoXQ N.5.9.0.1.H u +.q.8.Z.M.J.Q.n k.}.T.K.jX_.X.@.",
"L.[.T / kXrXm.7 L.#X#X*X*XOXL.-.' _ K L.>X*X^ +.,.w.3.3.bXHXAXwXHXZXeXqXwXAXZX:Xt.bXk.> ) [. XK.3.~ 4.mX<XM.% + %.J.j.*XjX'.Q.).",
"K.L.k.).FX=X@.H K. XrXNXkXh.P.K.6.o.  R.L.X.' 1 _ 0.t.A k.vXZXtXKXHXtXtXtXVXNXkX|.JX>XZ l [.oX[.~ 4.hXJXNXQ z k 4 + 5 T.:.f.Q./.",
"J.A &XGXbX8.! o.G C.sXfXaXD | h i K ( J u 1 i ' 5 r ! B.U Y 1XZXVX8XqXCXAXOXF.M.*XFXNX|.y - , 9 w U.LXIX).o k d i 3 i ] _ q p :.",
"k K e.k.kXJ.p , L L.XXP.[ H k k a S D 4 @ u ;.}.| Z <.w.U V e.Z.V.S..XL.} {.$X+XR E.$XA.K.XXD >X6X|.LXhX4.w p H , i ..w K.XX;X'.",
"! P Z I K.%.O h }.}.U.:.P 4.i r i z f.9 r @.&.J...L ] h [.0.V y.A.S.,.A D ~ v.@., S ~ 3.3.V.I k.{.V.Q.k.W D G ] -.-.| @ ( >.a.g.",
"2.3.] 2 D X.v.].].J.i.l ..K.F : ` j.f.j _ @.a ( H s i i J.{.{.V.A.S. XL.*Xz @ : 1 =   J 3.U 6 + B ,.B U &XhX$.R 2.7.a.G.9 o * o ",
"} q.w.1 f 5.#XoXI :._ a } 9.] : *.}.' +.+.f 1 1 3 t ` %.H .X7X5XZ.3X3X5XdXx 5 i.{ r 4 +.3.:.- O * F t.Q bXSXg.<.,.+.f.'.z = t h ",
"3.R f f G P R D i =XR.b.].] a :  .v.k s.i.5 3 j G 6.}.H.*XR.b.wXuXuXiXW 8 : !.`.Q.# %.6.V.=X:.B A ,.t.{.@XV.+.j.J.w._ 4 5 = g J.",
"H v.5.P R 3.P & 9 kX^.O.L 4 t + ;.*X#.h t ; O +.[.>X(. .J.#.J.rXuXuXrXR.@ w [ { x ; ] 7.;.| U U R F D b.w.t.oX[.-.f c G.* , d : ",
" .:.v.J.B C.XXR.&.*XT.%.2 u 6 F 0.[.) u @ 5 h.=XoXT.i.@ a.K g.lXKXCXiX>.9 i , * , , q ..;.[ Y.k.U b.>XJ.B I 1Xt.L - z G.sXH.m sX",
"v.k >.:.j vXmX X6.2.K.7.K G u Z K.&X[ s = j L.oX}.9.H z H.:.m gXFXqXS.> r q [ z 4 z 5 H &.a.~.p.Y {.:X].6 > r.C.v. .z - vX'._.bX",
"m.$.E  .z.IXmXx.o.s @.c.2.u i : ~.DXg.5 w K ' F U.}.8.^.I.s.c * E 6X,X+.[ z I.H.5 g.$.l ` #.A ! 3.3.! ].&.+ A +X#X X$.. - 4XmX2.",
"d :.T.'.`.FXNXOX6.E f ..+.4 y B &XGXg.a D v./.(.~.p.: (  .l G.`.g.NX=X/ /.hXg.@ g < $.$.[ 7.O.R u ; b xXpXo j B.D.$X+XT.h.9.w.I ",
"E | >.f.!.>X6X#Xb.@.o.K D R j $ pXIXl.f T T.jX^.H. .6 k p p c g.l R.h.6 i.g.g g G.I.G.$.g t @.R _ } 9.f.k.7.5 F W N.XX:X9.B D ^ ",
"K J a ' J.P.oXoX@.E G.Y.J.5.u O l.dX;X-.1.Y.~.G.#. .#.i h | ) , r K I 2 < , : { !.~.g.z 9 o 1.c.<.l =.~.}.v.> * * > *.`.}.! Q t.",
" . .l i.U.I.&XXX-.R Y.~.(.^.d.z f v.vXK.6.G.c l k =.;., ) &.#.p d v.6.( a s w ' a.G.b g - @ v. X5.O x kXsX=.p.0 k j v m &X{.r.B.",
" .%.| $.Y.^.XX,XXXb.X. .G.kXkX_.L. Xv.v.v.%.$.d #. .k y k J ` *.%.K.T.I.` H X.R q x x g = # R.OXL.B _ S d W.zX8 i.^.G.O l.}.Z.M.",
"r k , l.SX/.[.n.O.[.v.@.:.p.x j v. Xq ; g.H.3 k #.k q l p -.7.p g ^.&Xk.;X&.,.8.:.z j 7 = z zX/.2 j @ 7.P.f.u.5 U.}.9.* v &.N.N.",
", i , i.lX~.c.c.6..X XL.7.w = @ w O.G.~.G.>.* 5 h k k ` l 7.;.r S L.q.w.*Xb.+.k l t 9 $ g.DXLXhXB j : #.:.4.D H 8.9.d - = u P <.",
"t f i _ L.-.E @.b.C.[.L.j.;.F { i.m W._.T. .O 3 r p ` l l %.O.#.(.^.w.V S 1.| h g @ l w f.SXGX*XD / ( J | 4.2.L I u = 3 3 4 f ..",
"k d ) @.Z.R G @.m.v.v. .H.*XF f._.W.+ e R.R.8 a h i 1 p g %.8.K.SXaXp.=.7 $ ' :.:.@ :.:.R r.D w a K 9.:.| %.5. .j 5 - 3 ; p +.+.",
"3 r J @.@.N.c.Y.*X5.OXL...C.Y K  .K d % I.hXQ.( ` l y 4 @ a.}.L.K.2 /.zX9.C & 6 F L v.5.I t.K.-.F a 8.o.w o.E.T.[ + y r - H @.o.",
"6 p R.=XL.9XXXX.m.R.T.H.@..X,.G  .@.e + l.xXbX9 < ` a i 3 $.7.w.D 2 b z.e.V / $.#.8.8.+.Z F ` =.;.&.#.T.d.2 D J 6 5 4 i #  .v.5.",
"> 1.L.L.6.=XXXR J J.:.| 1.C.6.E @.Y.`.i b /.pX^.!.i.O - h  .] Z e $.k < +.6 / [ ' 8. XK./ 6 7 ( o.} y I.%.p.jXG.5 : ( _ + T n.n.",
"r ~ v.l #.L.L.-. .Y.>._ W Q v.X.O.`.GX).5 @ B :X-Xf.z i h ( ' ' s.s.#.d J.( t 1 > D 4X:X} 6 r t 3 * 9 P A ~.HX;XG.$.O.2.5 I.T.@.",
"O.= c _.T.[.C.m.z bX_.*.Z G 2.X.;.;XJXzXm 1 V.^ ! ^.:X3.u @ ` ^.kXI., c P.9.j g j V xXFXP.> , 9 - - *.J.K.3.U |.:X*X6.3.=.dXdXO ",
"J Y.I.l e 2.c.v.L.^._.`.I.( 4 X.2.;.T.}.V.C.*XD -XjXd.w G a 4 l *Xs.i W.nXj.O l.SX(.].mXFXd.o O g l j Z *X<XB. .$.:.O.b.v.E.~.l ",
"< *. .x /.I.6.2.:.s.s.s.;.T   -.b.X.<.{.OX=X X2.f.m 4 , #.*.h = d.z i i./.7 I.jXlXf.D bXKX4X;Xb   $.P.&.8.}.].U.l O d b.b.E a.`.",
"$.l , $.sXY.-.+.@.:.q q d.(.8 *.K.;.;.{.9X4Xq.v.G @ g k  .#.l y J a q K 5.f ^.`.i.E :.lXHXrXNX^.g o.T.4.h.T.T.P.[ g  .O.! D d.(.",
"R.:.f #.I.J.)  .J.>.e h ).DXn ` h.%.] }.0X4XP ;.5.=.z :.a q i t 4.H [ P.XXK.H   > K.Y._.T.Q @X*XJ.D 4.w -XmXK.O c J.-.Z F v.n.W ",
"G.f.>.#.%.d u u f | E ` gXSXp.e $.( 2 -XNX9XR ( J.:.- 3 d d y p 4.Z ).sXb ; = % 6 J.L.*.w K L.v._ u *.E Y.^./ F c.0.: u k ,.~ ! ",
"^.a.#.)  .R.#.q -.5.2 t dXLX(.u : ' J O.kXNX~.j _ R e # ' =.) w V.6.}.*X6 @ O H b.7.:.o.J %.h.-.o...) o.1.+.> A T e o < ~ 3.P G ",
"^.^.a.q  .K.-.+.v.+.l $.`.FX'.f.i.f ) S P.-XY.w i I.~.  k ` a G 0.V.V.q.F 6 o 4 &.H k *.>.a l ` 5.K...w ).pX9 (.oXN.x.0.L.;.2 ,.",
"'._.a.< f :.8.J.v.+.$.>.s.J.U.~.I.' s.d.=.' T E l !.hXp.` r 4 ' +.w.Y Y ( j ' ( 2 l - l $.@ * a 7.L.J.Z /.lXx ;XNXHXNXFXjXi.: e.",
"jXa.w ) S J.Y.R.b.v.f 4  .v.;._ _ j.(.h.!.^.S J.| j I.kXs., F 9.] A Y P i t K.C...T.z # - 3 r J +.9.XXT.3.W w > IXPXPXPXlX=.2 8 ",
"_ f k J e [.>X}.v.G 4.8.2.2.T.&.=.P.%.h.p.( s #.2 g.sXsXb : +.t.e.V 2 6 l h _ ~ N.-.J.>.1 3 * - H 2.{.#XXX:.+ n IXLXZX(.p.s = ; ",
"jXP. . .K L.T.P.c.o.].q.| ..+.+.9.K.H  .v.L.&.j & l.lXdXn $ e.t.r.h.#.u h $.d.h.7.&.*XI.3 a.c g z j.b.L.v. . .5 jXNXOXw S ..] s ",
"jXY.$.$.=.6.J.K.U.P.V.1.f G I.a.o.X.) H K.[.7.j $ g.pXhXu.> I ^ q.j.*.F u h.s.=.[ -.J.Y.Y.I.b y s.*X+.I G G ) i n.6XzXm i K  .s ",
": @.;.#.| 7.}.*X!.I.h...d F -XI.k < H O.1.4.[ z u.!.pXz.] Z F ! j.&.( a H p.{ [ d.o./ U.;XG.; ; J.*X6 , )  ., z C.mXDXl.g * ; - ",
"i <.0.,.Z (.zX(.1 @ d.U.h.S ' U.I.@ s #.;.&.H #.kXIXSX7 7 # i 6.w.=.' | -.a a ~.jX5 sX;X4.% r s 6 - u * $.v.a = K R a ; - - - r ",
"f ].{.J.p.~.!.i.+ = i ` #.d.-.$.g x `.8.o.i.{ u.p.U.U.$ =.-.| $.J.u i.Y.{ r = i.!.y m sXhX+ u i , 1 4 # -.J.i J ..S UXUX; 3 y p ",
"%.[.oXK.p.^.~.i.h $.z p  .h.%.f $.f.^.2.,.s.f.f.aX/.j./ +.:.h.d.#.$.h.s.3 k : j I.j # W.hXg.5 - y y 1 3 e L l d.2.E UXUXx v q e ",
"p.j.K.6.i.!.!.g.a.!.i.a l d.i J a.s.1.,.<.p.f.!.lXsXs.K.1.%.a.a.4 #.I.G.j J ` d.J.x O z !.!.8 , t t y , m Q.m :.L.5.O UXi.m i.a.",
"` K L #.p.1.1 v W.~.#., l >.r - = = =.=.=.G 2 !.!.p.Z |.}.*., 3 p + I.hXj.w f.^.s.3 1 4 u P 4 - 4 5 g   aXDXb q E.R.@ a.H.~.'./."
};
