/* XPM */
static char *result[] = {
/* columns rows colors chars-per-pixel */
"64 64 49 1 ",
"  c #63A643",
". c #66A947",
"X c #67AA4A",
"o c #6CAC4F",
"O c #6EAC52",
"+ c #72AE56",
"@ c #73AF58",
"# c #74B057",
"$ c #75B15B",
"% c #78B25E",
"& c #7CB562",
"* c #80B767",
"= c #84BA6B",
"- c #88BC6F",
"; c #8BBE73",
": c #8EC075",
"> c #90C176",
", c #93C37B",
"< c #97C780",
"1 c #98C681",
"2 c #9ECA87",
"3 c #9FCB88",
"4 c #A2CD8B",
"5 c #A7D58F",
"6 c #A8D58F",
"7 c #A7D190",
"8 c #AAD593",
"9 c #ABD893",
"0 c #AFD698",
"q c #B1D79A",
"w c #B4DA9D",
"e c #B7E29E",
"r c #B7DCA1",
"t c #B9DDA3",
"y c #BBE3A3",
"u c #BEE1A8",
"i c #C3E4AD",
"p c #C4EDAC",
"a c #C7E6B1",
"s c #C9E6B3",
"d c #C7E8B3",
"f c #CBECB4",
"g c #CDF2B5",
"h c #CFF3B8",
"j c #D2F5BA",
"k c #D6FBBE",
"l c #DBFBC2",
"z c #E0FCC6",
"x c None",
/* pixels */
"xxxxxxxxxxxxxxxxxxxxxxxxxxxxxxxxxxxxxxxxxxxxxxxxxxxxxxxxxxxxxxxx",
"xxxxxxxxxxxxxxxxxxxxxxxxxxxxxxxxxxxxxxxxxxxxxxxxxxxxxxxxxxxxxxxx",
"xxxxxxxxxxxxxxxxxxxxxxxxxxxxxxxxxxxxxxxxxxxxxxxxxxxxxxxxxxxxxxxx",
"xxxxxxxxxxxxxxxxxxxxxxxxxxxxxxxxxxxxxxxxxxxxxxxxxxxxxxxxxxxxxxxx",
"xxxxxxxxxxxxxxxxxxxxxxxxxxxxxxxxxxxxxxxxxxxxxxxxxxxxxxxxxxxxxxxx",
"xxxxxxxxxxxxxxxxxxxxxxxxxxxxxxxxxxxxxxxxxxxxxxxxxxxxxxxxxxxxxxxx",
"xxxxxxxxxxxxxxxxxxxxxxxxxxxxxxxxxxxxxxxxxxxxxxxxxxxxxxxxxxxxxxxx",
"xxxxxxxxxxxxxxxxxxxxxxxxxxxxxxxxxxxxxxxxxxxxxxxxxxxxxxxxxxxxxxxx",
"xxxxxxxxxxxxxxxxxxxxxxxxxxxxxxxxxxxxxxxxxxxxxxxxxxxxxxxxxxxxxxxx",
"xxxxxxxxxxxxxxxxxxxxxxxxxxxxxxxxxxxxxxxxxxxxxxxxxxxxxxxxxxxxxxxx",
"xxxxxxxxxxxxxxxxxxxxxxxxxxxxxxxxxxxxxxxxxxxxxxxxxxxxxxxxxxxxxxxx",
"xxxxxxxxxxxxxxxxxxxxxxxxxxxxxxxxxxxxxxxxxxxxxxxxxxxxxxxxxxxxxxxx",
"xxxxxxxxxxxxxxxxxxxxxxxxxxxxxxxxxxxxxxxxxxxxxxxxxxxxxxxxxxxxxxxx",
"xxxxxxxxxxxxxxxxxxxxxxxxxxxxxxxxxxxxxxxxxxxxxxxxxxxxxxxxxxxxxxxx",
"xxxxxxxxxxxxxxxxxxxxxxxxxxxxxxxxxxxxxxxxxxxxxxxxxxxxxxxxxxxxxxxx",
"xxxxxxxxxxxxxxxxxxxxxxxxxxxxxxxxxxxxxxxxxxxxxxxxxxxxxxxxxxxxxxxx",
"xxxxxxxxxxxxxxxxxxxxxxxxxxxxxxxxxxxxxxxxxxxxxxxxxxxxxxxxxxxxxxxx",
"xxxxxxxxxxxxxxxxxxxxxxxxxxxxxxxxxxxxxxxxxxxxxxxxxxxxxxxxxxxxxxxx",
"xxxxxaassssssssddddsssssssdddsssssddsddddaaaaaaassssssaadsaxxxxx",
"xxxxakjghhhjjjhjjjjjjjjjjjjjjjjhjjjjjjhjjjhjjjjjhjjhhhhhgjzxxxxx",
"xxxxige59999855555577575665587747755575556556665779999995plsxxxx",
"xxxxsr= @O+O++++#+#@@+##@+#+++@+#++#++##++@++++@@@#OOO+oX5fxxxxx",
"xxxxsy:X&%@&;4222322222222222244333242222222222222<&$&$#O7laxxxx",
"xxxxsy>O&&+=0siiiiiiiiiiiiiiisauudduiiiiiiiiiiiiaiu;$&&$#8jsxxxx",
"xxxxdy>O&%o>tdaiaaaaiaiiaaiaar2;,8udaiaiiaiiiaiaiai1$#&$@8jsxxxx",
"xxxxdu>O%#&7iiiiuuiuiuiiuiii8;oo+$1taiiiiiiiiiuiiidw;O%$#7kxxxxx",
"xxxxdy>o&&5yaiiiiiiiiiiiiiit;o%;<&&4iiiiiiiiiiiiiiii8=%%#9jxxxxx",
"xxxxdu:o;0uiiiiiiadiiiiiiiu4$;qtuu7,wiiiiiiiiaaiiiiiiw,&O9jxxxxx",
"xxxxdy:O4iaiiiiiiyquiiiiiat-1wt7081;4aauiiiitrtiiiiiiiw*+8jxxxxx",
"xxxxdi-+5aatuiaiq,;1waiiiiq%5iu12=O&<uaiiiaw2;,qiiiiiat*O8jxxxxx",
"xxxxsu:O4iiiiiat<.OO2iaiai0#<rt90;O@,uauiii2Ooo1tduiiiw*O8lxxxxx",
"xxxxsu-+4iaiiisq;O&O>taiii0%@,qiat4*;tauidt>O&O;wdiuaiw*O6jxxxxx",
"xxxxsy;+4iiiiist,XOo2iiiiiq&Oo%>0ut7;uaiiii2ooX1ydiiiiw*+8jxxxxx",
"xxxxsy;+7siiiiiit,;4riiiiat=*&&;5tiw2iaiiiiw2;1wiiiiiat*O8jxxxxx",
"xxxxdu;O2yiiiiiiitwyiiiiiat,<474qyq48iiiiiiiywtiiiiisi8&O8jxxxxx",
"xxxxdu>o=4tiiiiiisdaiiiiiai840tty0>,tiiiiiiiadsiiiiit7;%+8jxxxxx",
"xxxxdy,O%O>tsiiiiiiiiiiiuiii1&&;,O&9sauaiiiiiiiiiiii2++$@9jxxxxx",
"xxxxdy>O&@@2uaiiiiiiiiiiiiiit2&@$;0aautiiiiiiiiiiia7*+&$@9jxxxxx",
"xxxxsy>O&&o;tfdidiiaaadaaaaafir9qtadaassidaaiidiasi,@%&$@8jxxxxx",
"xxxxsy>O&&@=4ytttttttrtrttrttttytutrtttttrtttyrettq-$%%%+8jxxxxx",
"xxxxdy>o%%$%=>>:::::::;:::::::::;;;;:::::;:::::::::&$%%$+8jxxxxx",
"xxxxst-.$#$##ooooooooooooooooooo++OoooooooooOooOOXo+###Oo5jxxxxx",
"xxxxijpweyeyeeyeeyyyyyyeeyyyeyyeyyyeeyyyeyyyyeyyeeeyyeyewhlsxxxx",
"xxxxiggffgffgfggfgggggfgffggfggfgfgffggfgffgfgfgggffggffigkxxxxx",
"xxxxxxxxxxxxxxxxxxxxxxxxxxxxxxxxxxxxxxxxxxxxxxxxxxxxxxxxxaxxxxxx",
"xxxxxxxxxxxxxxxxxxxxxxxxxxxxxxxxxxxxxxxxxxxxxxxxxxxxxxxxxxxxxxxx",
"xxxxxxxxxxxxxxxxxxxxxxxxxxxxxxxxxxxxxxxxxxxxxxxxxxxxxxxxxxxxxxxx",
"xxxxxxxxxxxxxxxxxxxxxxxxxxxxxxxxxxxxxxxxxxxxxxxxxxxxxxxxxxxxxxxx",
"xxxxxxxxxxxxxxxxxxxxxxxxxxxxxxxxxxxxxxxxxxxxxxxxxxxxxxxxxxxxxxxx",
"xxxxxxxxxxxxxxxxxxxxxxxxxxxxxxxxxxxxxxxxxxxxxxxxxxxxxxxxxxxxxxxx",
"xxxxxxxxxxxxxxxxxxxxxxxxxxxxxxxxxxxxxxxxxxxxxxxxxxxxxxxxxxxxxxxx",
"xxxxxxxxxxxxxxxxxxxxxxxxxxxxxxxxxxxxxxxxxxxxxxxxxxxxxxxxxxxxxxxx",
"xxxxxxxxxxxxxxxxxxxxxxxxxxxxxxxxxxxxxxxxxxxxxxxxxxxxxxxxxxxxxxxx",
"xxxxxxxxxxxxxxxxxxxxxxxxxxxxxxxxxxxxxxxxxxxxxxxxxxxxxxxxxxxxxxxx",
"xxxxxxxxxxxxxxxxxxxxxxxxxxxxxxxxxxxxxxxxxxxxxxxxxxxxxxxxxxxxxxxx",
"xxxxxxxxxxxxxxxxxxxxxxxxxxxxxxxxxxxxxxxxxxxxxxxxxxxxxxxxxxxxxxxx",
"xxxxxxxxxxxxxxxxxxxxxxxxxxxxxxxxxxxxxxxxxxxxxxxxxxxxxxxxxxxxxxxx",
"xxxxxxxxxxxxxxxxxxxxxxxxxxxxxxxxxxxxxxxxxxxxxxxxxxxxxxxxxxxxxxxx",
"xxxxxxxxxxxxxxxxxxxxxxxxxxxxxxxxxxxxxxxxxxxxxxxxxxxxxxxxxxxxxxxx",
"xxxxxxxxxxxxxxxxxxxxxxxxxxxxxxxxxxxxxxxxxxxxxxxxxxxxxxxxxxxxxxxx",
"xxxxxxxxxxxxxxxxxxxxxxxxxxxxxxxxxxxxxxxxxxxxxxxxxxxxxxxxxxxxxxxx",
"xxxxxxxxxxxxxxxxxxxxxxxxxxxxxxxxxxxxxxxxxxxxxxxxxxxxxxxxxxxxxxxx",
"xxxxxxxxxxxxxxxxxxxxxxxxxxxxxxxxxxxxxxxxxxxxxxxxxxxxxxxxxxxxxxxx",
"xxxxxxxxxxxxxxxxxxxxxxxxxxxxxxxxxxxxxxxxxxxxxxxxxxxxxxxxxxxxxxxx"
};
