/* XPM */
static char *result[] = {
/* columns rows colors chars-per-pixel */
"64 64 217 2 ",
"   c #020000",
".  c #0F0000",
"X  c #160000",
"o  c #1F1A04",
"O  c #1D1918",
"+  c #3B0000",
"@  c #2E2D01",
"#  c #2A291D",
"$  c #00383E",
"%  c #2A2826",
"&  c #322E29",
"*  c #35322D",
"=  c #353227",
"-  c #283532",
";  c #363431",
":  c #393532",
">  c #3C3935",
",  c #3D3B39",
"<  c #373837",
"1  c #490000",
"2  c #650000",
"3  c #700000",
"4  c #453B36",
"5  c #413D3B",
"6  c #473734",
"7  c #5E3631",
"8  c #43413E",
"9  c #4C433D",
"0  c #707C3B",
"q  c #003B49",
"w  c #3B3546",
"e  c #443E4E",
"r  c #433C52",
"t  c #493F61",
"y  c #387A4D",
"u  c #454544",
"i  c #484643",
"p  c #4B4A45",
"a  c #4C494B",
"s  c #534E4B",
"d  c #5A565A",
"f  c #645A58",
"g  c #5B605F",
"h  c #656F54",
"j  c #544B6E",
"k  c #52466D",
"l  c #57516A",
"z  c #544A72",
"x  c #594E7C",
"c  c #5B517D",
"v  c #5C5277",
"b  c #4E446C",
"n  c #60587D",
"m  c #686766",
"M  c #747574",
"N  c #7B7978",
"B  c #6B6977",
"V  c #9A0900",
"C  c #A70000",
"Z  c #B50500",
"A  c #B7131B",
"S  c #BC251E",
"D  c #B1390F",
"F  c #BE0020",
"G  c #913936",
"H  c #AD2724",
"J  c #BC2622",
"K  c #BB2B26",
"L  c #AC3838",
"P  c #B53836",
"I  c #B5342F",
"U  c #CC0000",
"Y  c #C10000",
"T  c #D70301",
"R  c #C91D1C",
"E  c #D81C1B",
"W  c #DC1707",
"Q  c #EA1D13",
"!  c #EB0E05",
"~  c #C5241D",
"^  c #CB251D",
"/  c #CA281D",
"(  c #D4251D",
")  c #DB251C",
"_  c #DB2A1D",
"`  c #D8271A",
"'  c #CD351D",
"]  c #E1251B",
"[  c #E9251A",
"{  c #F0241B",
"}  c #D70320",
"|  c #D00F20",
" . c #C42521",
".. c #CA2924",
"X. c #D52A24",
"o. c #DC2B24",
"O. c #D82622",
"+. c #C43423",
"@. c #D7342A",
"#. c #CA3A36",
"$. c #D33C36",
"%. c #EC2E26",
"&. c #B84D1D",
"*. c #B35414",
"=. c #B36B1E",
"-. c #8D5635",
";. c #B75838",
":. c #B24234",
">. c #937C2F",
",. c #897A35",
"<. c #927D34",
"1. c #A46338",
"2. c #A2723B",
"3. c #B76235",
"4. c #D45E00",
"5. c #C9581C",
"6. c #C84700",
"7. c #C86600",
"8. c #C66818",
"9. c #CA7417",
"0. c #D57315",
"q. c #E8740E",
"w. c #E87517",
"e. c #E56E00",
"r. c #CB453E",
"t. c #C85821",
"y. c #D87427",
"u. c #C9753B",
"i. c #D87938",
"p. c #C66B23",
"a. c #E87B28",
"s. c #C03F45",
"d. c #BD4746",
"f. c #AF504B",
"g. c #976846",
"h. c #8E684C",
"j. c #B8714D",
"k. c #9A6D67",
"l. c #B47469",
"z. c #C74946",
"x. c #D67945",
"c. c #C07047",
"v. c #C76966",
"b. c #C67979",
"n. c #008A3E",
"m. c #2B8C3F",
"M. c #2A923F",
"N. c #7F8339",
"B. c #008448",
"V. c #008742",
"C. c #368747",
"Z. c #4B8356",
"A. c #6A8049",
"S. c #868434",
"D. c #908232",
"F. c #C38A16",
"G. c #FC850D",
"H. c #EE821E",
"J. c #FE8316",
"K. c #FD821C",
"L. c #FC8525",
"P. c #EC8033",
"I. c #BA866A",
"U. c #B78678",
"Y. c #D1825E",
"T. c #E08042",
"R. c #D88968",
"E. c #5D5182",
"W. c #5F5388",
"Q. c #65598B",
"!. c #635786",
"~. c #6A5D97",
"^. c #6F609E",
"/. c #7F8D8F",
"(. c #8D8A86",
"). c #918F8A",
"_. c #9D9B99",
"`. c #8B8F91",
"'. c #B69A96",
"]. c #B1998A",
"[. c #BAA39B",
"{. c #A8A8A7",
"}. c #BDBDBC",
"|. c #B6B6B4",
" X c #B9A8A8",
".X c #CD9790",
"XX c #D8AD9A",
"oX c #D5B9AD",
"OX c #C4BAB7",
"+X c #CFAAA5",
"@X c #D9C5BC",
"#X c #C1C0BE",
"$X c #B0BDC1",
"%X c #BDC1C0",
"&X c #C2C2C2",
"*X c #CBCCCB",
"=X c #C8CAC9",
"-X c #D8CBC9",
";X c #D2D1CE",
":X c #D4D3D3",
">X c #DCDCDC",
",X c #D9D8D7",
"<X c #CED0D0",
"1X c #E1DFDF",
"2X c #E1E1DF",
"3X c #D5DEE1",
"4X c #E4E4E4",
"5X c #EBECEB",
"6X c #E6EAEA",
"7X c #F0EFEF",
"8X c #F3F2EF",
"9X c #EBF2F4",
"0X c #F4F4F4",
"qX c #FDFDFD",
"wX c #F7F8F7",
"eX c #D5E8E8",
"rX c None",
/* pixels */
"rXrXrXrXrXrXrXrXrXrXrXrXrXrXrXrXrXrXrXrXrXrXrXrXrXrXrXrXd s 8 * : : : > 5 8 rXrXrXrXrXrXrXrXrXrXrXrXrXrXrXrXrXrXrXrXrXrXrXrXrXrX",
"rXrXrXrXrXrXrXrXrXrXrXrXrXrXrXrXrXrXrXrXrXrXrXrXrXrXrXrXi > : : : : : : : 4 8 8 p rXrXrXrXrXrXrXrXrXrXrXrXrXrXrXrXrXrXrXrXrXrXrX",
"rXrXrXrXrXrXrXrXrXrXrXrXrXrXrXrXrXrXrXrXrXrXrXrXrXrXrXrX> : * : : : : : : : > : > l Q.rXrXrXrXrXrXrXrXrXrXrXrXrXrXrXrXrXrXrXrXrX",
"rXrXrXrXrXrXrXrXrXrXrXrXrXrXrXrXrXrXrXrXrXrXrXrXrXrXrXrX5 > ; ; * : : * : * ; = : Q.Q.n rXrXrXrXrXrXrXrXrXrXrXrXrXrXrXrXrXrXrXrX",
"~.B rXrXrXrXrXrXrXrXrXrXrXrXrXrXrXrXrXrXrXrXrXrXrXrXrXrX> : ; : : : : : : ; * = r ~.W.c !.rXrXrXrXrXrXrXrXrXrXrXrXrXrXrXrXrXrXrX",
"~.l rXrXrXrXrXrXrXrXrXrXrXrXrXrXrXrXrXrXrXrXrXrXrXrXrXrX: > * * * * : : : > # < z ~.z E.Q.p rXrXrXrXrXrXrXrXrXrXrXrXrXrXrXrXrXrX",
"z d rXrXrXrXrXrXrXrXrXrXrXrXrXrXrXrXrXrXrXrXrXrXrXrXrXrX> > : : : : : : : > @ a Q.W.x E.v rXrXrXrXrXrXrXrXrXrXrXrXrXrXrXrXrXrXrX",
"u rXrXrXrXrXrXrXrXrXrXrXrXrXrXrXrXrXrXrXrXrXrXrXrXrXrXrX< - - - - ; ; : : * = k ~.z W.v a rXrXrXrXrXrXrXrXrXrXrXrXrXrXrXrXrXrXrX",
"rXrXrXrXrXrXrXrXrXrXrXrXrXrXrXrXrXrXrXrXrXrXrXrXrXrXrXrX6 6 6 6 6 : ; : : @ r E.~.b !.v rXrXrXrXrXrXrXrXrXrXrXrXrXrXrXrXrXrXrXrX",
"rXrXrXrXrXrXrXrXrXrXrXrXrXrXrXrXrXrXrXrXrXrXrXrXa u rXf G I I L G 7 * & & o b !.E.E.j rXrXrXrXrXrXrXrXrXrXrXrXrXrXrXrXrXrXrXrXrX",
"rXrXrXrXrXrXrXrXrXrXrXrXrXrXrXrXrXrXrXrXrXrXrX8 8 > %   + 2 3 2 1 X O e 5 & < b j Q.j rXrXrXrXrXrXrXrXrXrXrXrXrXrXrXrXrXrXrXrXrX",
"rXrXrXrXrXrXrXrXrXrXrXrXrXrXrXrXrXrXrXrXrXrXrX, o . ; , g B M M m i .   O > * ; r j rXrXrXrXrXrXrXrXrXrXrXrXrXrXrXrXrXrXrXrXrXrX",
"rXrXrXrXrXrXrXrXrXrXrXrXrXrXrXrXrXrXrXrXrXrXrXm m _.OX{.#X*X<X=X=X|.).m e & & : > 5 rXrXrXrXrXrXrXrXrXrXrXrXrXrXrXrXrXrXrXrXrXrX",
"rXrXrXrXrXrXrXrXrXrXrXrXrXrXrXrXrXrXrXrXrXrXrX{.&X4XqXqXqXqXqXqXqXqXwX,X_.i O : > > rXrXrXrXrXrXrXrXrXrXrXrXrXrXrXrXrXrXrXrXrXrX",
"rXrXrXrXrXrXrXrXrXrXrXrXrXrXrXrXrXrXrXrXrXrX).;X0XqXqXqXqXqXqXqXqXqXqXqX0X;XM   * 5 p rXrXrXrXrXrXrXrXrXrXrXrXrXrXrXrXrXrXrXrXrX",
"rXrXrXrXrXrXrXrXrXrXrXrXrXrXrXrXrXrXrXrXrXrX,X5X0XwXqXqXqXqXqXqXqXqXqX0X0XwX,X(.  > i rXrXrXrXrXrXrXrXrXrXrXrXrXrXrXrXrXrXrXrXrX",
"rXrXrXrXrXrXrXrXrXrXrXrXrXrXrXrXrXrXrXrXrX1XqX5X5X6X5X0XqXqXqXqXqXqX7X4X4X7X0X-Xm % 8 rXrXrXrXrXrXrXrXrXrXrXrXrXrXrXrXrXrXrXrXrX",
"rXrXrXrXrXrXrXrXrXrXrXrXrXrXrXrXrXrXrXrXrX5X0X4X>X>X4X0XqXqXqXqXqXwX6X>X>X,X5X5X}., 5 rXrXrXrXrXrXrXrXrXrXrXrXrXrXrXrXrXrXrXrXrX",
"rXrXrXrXrXrXrXrXrXrXrXrXrXrXrXrXrXrXrXrX6XqX6X0X1X>X0XqXqXqXqXqXqXqXwX4X:X7X5X4X>XM 5 rXrXrXrXrXrXrXrXrXrXrXrXrXrXrXrXrXrXrXrXrX",
"rXrXrXrXrXrXrXrXrXrXrXrXrXrXrXrXrXrXrXrX5XqX0X>X5X5X4X0XqXqXqXqXqXwX5X1X0X4X5XqX8X{.g rXrXrXrXrXrXrXrXrXrXrXrXrXrXrXrXrXrXrXrX*X",
"rXrXrXrXrXrXrXrXrXrXrXrXrXrXrXrXrXrXrX,X0XqX0X>X0XqX2X6XqXqXqXqXqX5X4X7XqX1X6XqXqX*XrXrXrXrXrXrXrXrXrXrXrXrXrXrXrXrXrXrXrXrXrX>X",
"rXrXrXrXrXrXrXrXrXrXrXrXrXrXrXrXrXrXrX1X0XqX5X6XwXqX5X>XqXqXqXqXqX4X4XqXqX1X6X0XqX4XrXrXrXrXrXrXrXrXrXrXrXrXrXrXrXrXrXrXrXrXrX4X",
"rXrXrXrXrXrXrXrXrXrXrXrXrXrXrXrXrXrXrX4XwXqX5X4XqXqX0X,X0XqXqXqXqX4X6XqXqX6X6X0XqX6XrXrXrXrXrXrXrXrXrXrXrXrXrXrXrXrXrXrXrXrXrX6X",
"rXrXrXrXrXrXrXrXrXrXrXrXrXrXrXrXrXrXrX>X0XqX5X4X0XqXqX>X7XqXqXqX0X4X5XqXqX5X6X0XqX4XrXrXrXrXrXrXrXrXrXrXrXrXrXrXrXrXrXrXrXrXrX>X",
"rXrXrXrXrXrXrXrXrXrXrXrXrXrXrXrXrXrXrX:X0XqX5X6X0XwX4X2X5XwXqXqX5X4XeX9XqX6X6X0XqX,XrXrXrXrXrXrXrXrXrXrXrXrXrXrXrXrXrXrXrXrXrXrX",
"rXrXrXrXrXrXrXrXrXrXrXrXrXrXrXrXrXrXrXrX5XqX7X4XwX>X{.,X5XqXqXqX7X>X%X%XqX6X6XqXqX*XrXrXrXrXrXrXrXrXrXrXrXrXrXrXrXrXrXrXrXrXrXrX",
"rXrXrXrXrXrXrXrXrXrXrXrXrXrXrXrXrXrXrXrX6XqXwX4X0X#X& }.2XwX8X8X7X*XN k.qX4X5XqXqX&XrXrXrXrXrXrXrXrXrXrXrXrXrXrXrXrXrXrXrXrXrXrX",
"rXrXrXrXrXrXrXrXrXrXrXrXrXrXrXrXrXrXrXrXrXqXqX5XqX=X9 {.,X@XXXoX4X}.M ).wX1X7XqXqX6XrXrXrXrXrXrXrXrXrXrXrXrXrXrXrXrXrXrXrXrXrXrX",
"rXrXrXrXrXrXrXrXrXrXrXrXrXrXrXrXrXrX}.rXrX,X9X6XwX>X/.(.].l.3.j.].(.`.$X0X9X5X7X5X0X*XrXrXrXrXrXrXrXrXrXrXrXrXrXrXrXrXrXrXrXrXrX",
"rXrXrXrXrXrXrXrXrXrXrXrXrXrXrXrXrXrX&XrXrXrX<X X@X@X'.j.g.-.-.-.g.1.U.OXoX-X,X6X0XrXrXrXrXrXrXrXrXrXrXrXrXrXrXrXrXrXrXrXrXrXrXrX",
"rXrXrXrXrXrXrXrXrXrXrXrXrXrXrXrXrXrX&XrXrXrX:XR.j.x.R.4.3.g.h.h.1.7.x.R.;..X:X0XqXrXrXrXrXrXrXrXrXrXrXrXrXrXrXrXrXrXrXrXrXrXrXrX",
"rXrXrXrXrXrXrXrXrXrXrXrXrXrXrXrXrXrXrXrXrXqXqX-XR.*.e.y.p.8.8.8.p.y.0.4.;.oX0XqX0X*XrXrXrXrXrXrXrXrXrXrXrXrXrXrXrXrXrXrXrXrXrXrX",
"rXrXrXrXrXrXrXrXrXrXrXrXrXrXrXrXrXrXrX}.:X7XqXwX3X[.*.8.9.9.0.0.p.4.*.I.*X5XqXwX>X:X&XrXrXrXrXrXrXrXrXrXrXrXrXrXrXrXrXrXrXrXrX*X",
"rXrXrXrXrXrXrXrXrXrXrXrXrXrXrXrXrXrXrXrXrX*X:XwX,X[.V t.5.5.&.*.5.5.D k.;X5X2X*X*X:XrXrXrXrXrXrXrXrXrXrXrXrXrXrXrXrXrXrXrXrXrXrX",
"rXrXrXrXrXrXrXrXrXrXrXrXrXrXrXrXrXrXrXrXrXrXrXrX+Xv.C +.' D &.I ' I C L .X-XrXrXrXrXrXrXrXrXrXrXrXrXrXrXrXrXrXrXrXrXrXrXrXrXrXrX",
"rXrXrXrXrXrXrXrXrXrXrXrXrXrXrXrXrXrXrXrXrXrXrXrXU U J  .F &.=.=.R | ~ Y T Z rXrXrXrXrXrXrXrXrXrXrXrXrXrXrXrXrXrXrXrXrXrXrXrXrXrX",
"rXrXrXrXrXrXrXrXrXrXrXrXrXrXrXrXrXrXrXrXrXrXrX$.@....._ } 8.F.9. .) ` ..X.@.z.rXrXrXrXrXrXrXrXrXrXrXrXrXrXrXrXrXrXrXrXrXrXrXrXrX",
"rXrXrXrXrXrXrXrXrXrXrXrXrXrXrXrXrXrXrXrXrXrX:.%.( ~ ( ) ] o.@.' ) ] ( ~ / [ $.rXrXrXrXrXrXrXrXrXrXrXrXrXrXrXrXrXrXrXrXrXrXrXrXrX",
"rXrXrXrXrXrXrXrXrXrXrXrXrXrXrXrXrXrXrXrXrXrX@.[ ( ~ ( ) _ E } | ) ] E ^  .] o.$.rXrXrXrXrXrXrXrXrXrXrXrXrXrXrXrXrXrXrXrXrXrXrXrX",
"rXrXrXrXrXrXrXrXrXrXrXrXrXrXrXrXrXrXrXrXrX#.[ ] ~ ~ ) ) ) _ ] _ ) ) ) ^  .O.[ @.rXrXrXrXrXrXrXrXrXrXrXrXrXrXrXrXrXrXrXrXrXrXrXrX",
"rXrXrXrXrXrXrXrXrXrXrXrXrXrXrXrXrXrXrXrXf.+.E ( S / ) ) ) ) ) ) ) ) ) ( J ..) ..P rXrXrXrXrXrXrXrXrXrXrXrXrXrXrXrXrXrXrXrXrXrXrX",
"rXrXrXrXrXrXrXrXrXrXrXrXrXrXrXrXrXrXrXrXE ! J H J ( ] ) ( ` ) ) O.( ) ) K H J E T Z rXrXrXrXrXrXrXrXrXrXrXrXrXrXrXrXrXrXrXrXrXrX",
"rXrXrXrXrXrXrXrXrXrXrXrXrXrXrXrXrXrXrXrXv.r.W A H ^ ] ) ) ] ] ) ] ) ] O.H H U T v.'.rXrXrXrXrXrXrXrXrXrXrXrXrXrXrXrXrXrXrXrXrXrX",
"rXrXrXrXrXrXrXrXrXrXrXrXrXrXrXrXrXrXrXrXrXrXz.I J ~ / ^ ( ^ ( ( ( ^ ^  . .Z v.+X,X:XrXrXrXrXrXrXrXrXrXrXrXrXrXrXrXrXrXrXrXrXrXrX",
"rXrXrXrXrXrXrXrXrXrXrXrXrXrXrXrXrXrXrX=XrXrXrXr._ R ~ ~ ~ J I K ~ ~ S  .o.Y '.eX7X,X#XrXrXrXrXrXrXrXrXrXrXrXrXrXrXrXrXrXrXrXrXrX",
"rXrXrXrXrXrXrXrXrXrXrXrXrXrXrXrXrXrXrX}.OXrXrX@.] ) ) O.W #.f.d.) ` ) _ o.T b.%X;X;X=XrXrXrXrXrXrXrXrXrXrXrXrXrXrXrXrXrXrXrXrXrX",
"rXrXrXrXrXrXrXrXrXrXrXrXrXrXrXrXrXrXrXOX|.{.l.o.{ ] [ Q %.z.rXrX@.{ [ ) Q { z._.}.4X:XrXrXrXrXrXrXrXrXrXrXrXrXrXrXrXrXrXrXrXrXrX",
"rXrXrXrXrXrXrXrXrXrXrXrXrXrXrXrXrXrXrX|.|.rXrXz.$.X.] o.z.rXrXrXz.@.) X.@.r.rXrX|.=XrXrXrXrXrXrXrXrXrXrXrXrXrXrXrXrXrXrXrXrXrXrX",
"rXrXrXrXrXrXrXrXrXrXrXrXrXrXrXrXrXrXrXrXrXrXrXrXrXd.s.s.rXrXrXrXrXrXd.z.d.rXrXrXrXrXrXrXrXrXrXrXrXrXrXrXrXrXrXrXrXrXrXrXrXrXrXrX",
"rXrXrXrXrXrXrXrXrXrXrXrXrXrXrXrXrXrXrXrXrXrXrXrXrXrXrXrXrXrXrXrXrXrXrXrXrXrXrXrXrXrXrXrXrXrXrXrXrXrXrXrXrXrXrXrXrXrXrXrXrXrXrXrX",
"rXrXrXrXrXrXrXrXrXrXrXrXrXrXrXrXrXrXrXrXrXrXrXrXrXrXi.y.j.rXrXrXI.u.y.u.rXrXrXrXrXrXrXrXrXrXrXrXrXrXrXrXrXrXrXrXrXrXrXrXrXrXrXrX",
"rXrXrXrXrXrXrXrXrXrXrXrXrXrXrXrXrXrXrXrXrXrXrXrXrXrXa.G.x.rXrXrXj.H.H.x.rXrXrXrXrXrXrXrXrXrXrXrXrXrXrXrXrXrXrXrXrXrXrXrXrXrXrXrX",
"rXrXrXrXrXrXrXrXrXrXrXrXrXrXrXrXrXrXrXrXrXrXrXrXrXrXw.G.T.rXrXrXrXJ.K.x.rXrXrXrXrXrXrXrXrXrXrXrXrXrXrXrXrXrXrXrXrXrXrXrXrXrXrXrX",
"rXrXrXrXrXrXrXrXrXrXrXrXrXrXrXrXrXrXrXrXrXrXrXrXrXrXy.a.rXrXrXrXrXa.a.u.rXrXrXrXrXrXrXrXrXrXrXrXrXrXrXrXrXrXrXrXrXrXrXrXrXrXrXrX",
"rXrXrXrXrXrXrXrXrXrXrXrXrXrXrXrXrXrXrXrXrXrXrXrXrXh S.S.A.rXrXrXZ.N.D.N.rXrXrXrXrXrXrXrXrXrXrXrXrXrXrXrXrXrXrXrXrXrXrXrXrXrXrXrX",
"rXrXrXrXrXrXrXrXrXrXrXrXrXrXrXrXrXrXrXrXrXrXrXrXrXC.M.M.C.rXrXrXC.C.M.m.y rXrXrXrXrXrXrXrXrXrXrXrXrXrXrXrXrXrXrXrXrXrXrXrXrXrXrX",
"rXrXrXrXrXrXrXrXrXrXrXrXrXrXrXrXrXrXrXrXrXrXrXrXB.V.n.n.B.rXrXrXB.V.n.n.V.rXrXrXrXrXrXrXrXrXrXrXrXrXrXrXrXrXrXrXrXrXrXrXrXrXrXrX",
"rXrXrXrXrXrXrXrXrXrXrXrXrXrXrXrXrXrXrXrXrXrXrX2.<.D.<.>.,.rXrXrXh.<.>.,.D.2.rXrXrXrXrXrXrXrXrXrXrXrXrXrXrXrXrXrXrXrXrXrXrXrXrXrX",
"rXrXrXrXrXrXrXrXrXrXrXrXrXrXrXrXrXrXrXrXrXrXrXa.w.w.w.q.w.rXrXrXy.H.q.q.q.L.x.rXrXrXrXrXrXrXrXrXrXrXrXrXrXrXrXrXrXrXrXrXrXrXrXrX",
"rXrXrXrXrXrXrXrXrXrXrXrXrXrXrXrXrXrXrXrXrXrXrXL.K.K.K.J.L.rXrXrXP.J.H.K.H.L.T.rXrXrXrXrXrXrXrXrXrXrXrXrXrXrXrXrXrXrXrXrXrXrXrXrX",
"rXrXrXrXrXrXrXrXrXrXrXrXrXrXrXrXrXrXrXrXrXrXrXrXP.a.P.P.i.rXrXrXrXi.i.i.i.i.rXrXrXrXrXrXrXrXrXrXrXrXrXrXrXrXrXrXrXrXrXrXrXrXrXrX",
"rXrXrXrXrXrXrXrXrXrXrXrXrXrXrXrXrXrXrXrXrXrXrXrXrXrXrXrXrXrXrXrXrXrXrXrXrXrXrXrXrXrXrXrXrXrXrXrXrXrXrXrXrXrXrXrXrXrXrXrXrXrXrXrX",
"rXrXrXrXrXrXrXrXrXrXrXrXrXrXrXrXrXrXrXrXrXrXrXrXrXq q q $ u s p rXrXrXrXrXrXrXrXrXrXrXrXrXrXrXrXrXrXrXrXrXrXrXrXrXrXrXrXrXrXrXrX",
"rXrXrXrXrXrXrXrXrXrXrXrXrXrXrXrXrXrXrXrXrXp i 4 4 4 4 4 4 4 > > 9 rXrXrXrXrXrXrXrXrXrXrXrXrXrXrXrXrXrXrXrXrXrXrXrXrXrXrXrXrXrXrX"
};
