/* XPM */
static char *result[] = {
/* columns rows colors chars-per-pixel */
"64 64 76 1 ",
"  c #000000",
". c #070909",
"X c #141515",
"o c #1A1919",
"O c #1F2121",
"+ c #252525",
"@ c #292826",
"# c #2C2B2C",
"$ c #2F2F30",
"% c #323333",
"& c #383636",
"* c #363738",
"= c #373939",
"- c #3B3B3B",
"; c #434344",
": c #464748",
"> c #47494B",
", c #4A4B4C",
"< c #4E4F51",
"1 c #4E5051",
"2 c #535455",
"3 c #555658",
"4 c #585759",
"5 c #57595A",
"6 c #5A5B5C",
"7 c #5E5F60",
"8 c #5F6163",
"9 c #636465",
"0 c #666768",
"q c #67686A",
"w c #6A6B6D",
"e c #6D6F71",
"r c #6F7172",
"t c #727375",
"y c #757779",
"u c #76797B",
"i c #7A7B7D",
"p c #807F7F",
"a c #7D7E81",
"s c #7E8182",
"d c #818284",
"f c #888786",
"g c #858688",
"h c #87898B",
"j c #8A8C8E",
"k c #8C8E91",
"l c #8E9193",
"z c #919395",
"x c #939699",
"c c #96999C",
"v c #999B9D",
"b c #9B9EA1",
"n c #9EA1A4",
"m c #A1A3A6",
"M c #A3A6A9",
"N c #A5A9AC",
"B c #A9ACAF",
"V c #AAAEB1",
"C c #ADB1B4",
"Z c #AFB5B8",
"A c #B1B3B4",
"S c #B4B6B9",
"D c #B3B8BC",
"F c #BABBBC",
"G c #C2C3C4",
"H c #C5C6C8",
"J c #C7C8C9",
"K c #CACACC",
"L c #CECFD1",
"P c #CED0D4",
"I c #D2D3D5",
"U c #D6D6D8",
"Y c #D7D8D9",
"T c #DADBDC",
"R c #DFE0E2",
"E c None",
/* pixels */
"EEEEEEEEEEEEEEEEEEEEEEEEEEEEEEEEEEEEEEEEEEEEEEEEEEEEEEEEEEEEEEEE",
"EEEEEEEEEEEEEEEEEEEEEEEEEEEEEEEEEEEEEEEEEEEEEEEEEEEEEEEEEEEEEEEE",
"EEEEEEEEEEEEEEEEEEEEEEEEEEEEEEEEEEEEEEEEEEEEEEEEEEEEEEEEEEEEEEEE",
"EEEEEEEEEEEEEEEEEEEEEEEEEEEEEEEEEEEEEEEEEEEEEEEEEEEEEEEEEEEEEEEE",
"EEEEEEEEEEEEEEEEEEEEEEEEEEEEEEEEEEEEEEEEEEEEEEEEEEEEEEEEEEEEEEEE",
"EEEEEEEEEEEEEEEEEEEEEEEEEEEEEEEEEEEEEEEEEEEEEEEEEEEEEEEEEEEEEEEE",
"EEEEEEEEEEEEEEEEEEEEEEEEEEEEEEEEEEEEEEEEEEEEEEEEEEEEEEEEEEEEEEEE",
"EEEEEEEEEEEEEEEEEEEEEEEEEE=353:-EEEEEEEEEEEEEEEEEEEEEEEEEEEEEEEE",
"EEEEEEEEEEEEEEEEEEEEEEE-=>whljuw8,;====EEEEEEEEEEEEEEEEEEEEEEEEE",
"EEEEEEEEEEEEEEEEEEE o:9sznNVVVBNMmvckhie7>-#    EEEEEEEEEEEEEEEE",
"EEEEEEEEEEEEE   -8ydlvnMBBNNNBNBBVBNNNmmbvczjsaaiy5+  =#EEEEEEEE",
"EEEEEEEE    #7tdlnmNBBCBBNNNMNNNMMNVVVVVVVVVVNVMcs5%;90#EEEEEEEE",
"EEEEEEo%>;=X=eknBCCCVBNNMNNMNNNNMNMNMMMMMNVVVVNnhe37ygy$EEEEEEEE",
"EEEEEE 9bka8<;;5rdznNBVBBNNMMNNMMBMBMVBMMNVNnk0*@2ygjs8EEEEEEEEE",
"EEEEEE qnVNnblse3-*;5thcMVCCCCNNMMNMMNVVCNcy<%>wshswua2EEEEEEEEE",
"EEEEEE 8nVVVNNnbxjst95227eslvmBCCVVVVVBvgq<:2qusir8>ra;EEEEEEEEE",
"EEEEEE 6nnNVVVVCCVNnbha86136wydlcbMMmzd9;$;9igguw962yi+EEEEEEEEE",
"EEEEEEE7nVNnNNNNnNVVVZCNnlaq1=*>4edgt;.o:rdjguw9riuray EEEEEEEEE",
"EEEEEEE6bZnsulbnNNNNNNNNNVVVNbku8;OXX 2yggddiyidfgytie EEEEEEEEE",
"EEEEEEE5xZcuehkzbnNNNNNNVVNVNNMMmbuOXwddddddpsddgdtuiqEEEEEEEEEE",
"EEEEEEE3zCnsknbbbMNNNNbbnnNNVVVVVSk%;dhddpddddddddyiy7EEEEEEEEEE",
"EEEEEEE3lCnlbZVBNMNNNNbblzcbmMMMMVd$6dgddddddsddddtat<EEEEEEEEEE",
"EEEEEEE2jCnklBMNNNNNNNNMbkaetalMNVd+8ddddddddddsddyde;EEEEEEEEEE",
"EEEEEEE1gCnlxVNMNNMMNNNNMBMbk97bVVa+wddpdddddddddsagw%EEEEEEEEEE",
"EEEEEEE,sCmlzVNNNNNVBBVVBNBNVkicVVi@tdddaddddddsdddg0oEEEEEEEEEE",
"EEEEEEE>iCnlzVNMNNNbzlzmMNMNCmlbVBi#ydddddddddddadgg9EEEEEEEEEEE",
"EEEEEEE:yCmlzVNNNNblprfjnVMMNncnBNy%idddddddddddddgg9EEEEEEEEEEE",
"EEEEEEE;rVmzzVMBMbgFBbJzzmBNNmnMBmy*sdddddddddsdsdgd7EEEEEEEEEEE",
"EEEEEEE=wVMsymBBblHYLKYBijAMVhibVMy-dddddaddddddsdfa6EEEEEEEEEEE",
"EEEEEEEEqVbdyaNNkgGVAKYFljMVbkfcVmt;ddddddddddddsdgi5EEEEEEEEEEE",
"EEEEEEEE0ncnmyMnhpzadmHLSczAxvnzVnr,gdddddddadddadfy2EEEEEEEEEEE",
"EEEEEEEE0lnGLCmzkg9mg4vRKvjAlcmzBnr<gdddddddddddddht<EEEEEEEEEEE",
"EEEEEEEE7bzAYTMhfkkDmtpIDjgCclzcAve2fdsdddddddddddhw>EEEEEEEEEEE",
"EEEEEEEE6NbzcNkkzzpmy;lHbylCNzlnAce6jdsdddsdsdddpdh0:EEEEEEEEEEE",
"EEEEEEEE4MBkykbcxzjdepFImdcCBnnmVce7jdddddddddddddg9;EEEEEEEEEEE",
"EEEEEEEE3MBclNZnkzAzmGITVznBMBBNVxw9gapdddddddpdddg7EEEEEEEEEEEE",
"EEEEEEEE3MBzjBNnxvUIIPFAzzCNNBNMVzw0gaadddpdsdddddg4EEEEEEEEEEEE",
"EEEEEEEE2mBlgNNBmlpBYYvtzBBMNnnNCkwwdupdddddddddddg4EEEEEEEEEEEE",
"EEEEEEEE3MBlsNNNBntfBAgjnBMBndsNCkwwdyagsddddddddgg4EEEEEEEEEEEE",
"EEEEEEEE3mBkiBNNNBvjhlxBVBMBcipnVkwrdtugsddsddsddgd3EEEEEEEEEEEE",
"EEEEEEEE3MVhrMBBMNANbnVBnVNVkbmxShwtpraddddddssddgd2EEEEEEEEEEEE",
"EEEEEEEE5MCl9tlnBBNNBBMNNNNNjcnxChqyirigddddddfddgf<EEEEEEEEEEEE",
"EEEEEEEE5MBMbjggkvMNNNNNnNnNllcbVdqyiwugddddggiigjy;EEEEEEEEEEEE",
"EEEEEEEE7NNBBMbzzzbNNMNNVVVVnlzMVd0uywagdaiyt039tr2EEEEEEEEEEEEE",
"EEEEEEEE5MBNNZCCNnnNNMMMnNNVBzzBCa0itwadtre9,@o=::EEEEEEEEEEEEEE",
"EEEEEEEE*hMCNnnBZZVNMNnxllbnBzhBVa9iy00w9r3$ EE#EEEEEEEEEEEEEEEE",
"EEEEEEEEE-9bCxqtkbNVCCBMbxhgs0iBVy9ar-2ty,$EEEEEEEEEEEEEEEEEEEEE",
"EEEEEEEEEEEei9$%58eiznVCVNnvkdkBVt9au9ya0$EEEEEEEEEEEEEEEEEEEEEE",
"EEEEEEEEEEEEE%.EEEE+6yhbBCVBnnnNBr7sdahg6EEEEEEEEEEEEEEEEEEEEEEE",
"EEEEEEEEEEEEEEEEEEEEE o0kmBNBVVNNe6sggfp0EEEEEEEEEEEEEEEEEEEEEEE",
"EEEEEEEEEEEEEEEEEEEEEEEEosCCVNNNM04dggd0-EEEEEEEEEEEEEEEEEEEEEEE",
"EEEEEEEEEEEEEEEEEEEEEEEEE8lnmVCCB05jde1EEEEEEEEEEEEEEEEEEEEEEEEE",
"EEEEEEEEEEEEEEEEEEEEEEEEEE3wtdlvv6,t5;EEEEEEEEEEEEEEEEEEEEEEEEEE",
"EEEEEEEEEEEEEEEEEEEEEEEEEEEE +2ww-%: EEEEEEEEEEEEEEEEEEEEEEEEEEE",
"EEEEEEEEEEEEEEEEEEEEEEEEEEEEEEE    EEEEEEEEEEEEEEEEEEEEEEEEEEEEE",
"EEEEEEEEEEEEEEEEEEEEEEEEEEEEEEEEEEEEEEEEEEEEEEEEEEEEEEEEEEEEEEEE",
"EEEEEEEEEEEEEEEEEEEEEEEEEEEEEEEEEEEEEEEEEEEEEEEEEEEEEEEEEEEEEEEE",
"EEEEEEEEEEEEEEEEEEEEEEEEEEEEEEEEEEEEEEEEEEEEEEEEEEEEEEEEEEEEEEEE",
"EEEEEEEEEEEEEEEEEEEEEEEEEEEEEEEEEEEEEEEEEEEEEEEEEEEEEEEEEEEEEEEE",
"EEEEEEEEEEEEEEEEEEEEEEEEEEEEEEEEEEEEEEEEEEEEEEEEEEEEEEEEEEEEEEEE",
"EEEEEEEEEEEEEEEEEEEEEEEEEEEEEEEEEEEEEEEEEEEEEEEEEEEEEEEEEEEEEEEE",
"EEEEEEEEEEEEEEEEEEEEEEEEEEEEEEEEEEEEEEEEEEEEEEEEEEEEEEEEEEEEEEEE",
"EEEEEEEEEEEEEEEEEEEEEEEEEEEEEEEEEEEEEEEEEEEEEEEEEEEEEEEEEEEEEEEE",
"EEEEEEEEEEEEEEEEEEEEEEEEEEEEEEEEEEEEEEEEEEEEEEEEEEEEEEEEEEEEEEEE"
};
