/* XPM */
static char *bbf2227c32c24f36914b86dbd3242162KH8cAPdz90n49taw[] = {
/* columns rows colors chars-per-pixel */
"64 64 249 2 ",
"   c None",
".  c #110D0E",
"X  c #380102",
"o  c #29190B",
"O  c #382A16",
"+  c #382512",
"@  c #292828",
"#  c #373737",
"$  c #342C26",
"%  c #1F2121",
"&  c #4C0101",
"*  c #460501",
"=  c #550300",
"-  c #581A00",
";  c #4D1405",
":  c #661600",
">  c #610100",
",  c #492807",
"<  c #572804",
"1  c #5A3308",
"2  c #5B3816",
"3  c #502C16",
"4  c #652900",
"5  c #722C02",
"6  c #683605",
"7  c #743A03",
"8  c #643B13",
"9  c #673A16",
"0  c #713416",
"q  c #573B29",
"w  c #48362B",
"e  c #653A27",
"r  c #733D2F",
"t  c #6C4106",
"y  c #774706",
"u  c #7B5305",
"i  c #6B4317",
"p  c #734B1C",
"a  c #764916",
"s  c #7D541C",
"d  c #795318",
"f  c #5B4326",
"g  c #4B443A",
"h  c #564839",
"j  c #584C31",
"k  c #694825",
"l  c #744B24",
"z  c #795527",
"x  c #775936",
"c  c #6C5133",
"v  c #72582D",
"b  c #434444",
"n  c #4A4949",
"m  c #4D4F50",
"M  c #545454",
"N  c #5A5B5B",
"B  c #575859",
"V  c #585048",
"C  c #685946",
"Z  c #6F554B",
"A  c #766347",
"S  c #766C5A",
"D  c #716852",
"F  c #5E5F60",
"G  c #636465",
"H  c #6A6B6D",
"J  c #676768",
"K  c #787469",
"L  c #6D6E70",
"P  c #6F7172",
"I  c #727375",
"U  c #757779",
"Y  c #77787B",
"T  c #7A7B7D",
"R  c #7C7975",
"E  c #736B65",
"W  c #5F6062",
"Q  c #543E4A",
"!  c #8C3E07",
"~  c #864901",
"^  c #865501",
"/  c #965A05",
"(  c #844D15",
")  c #845315",
"_  c #84541C",
"`  c #835A1C",
"'  c #8A5A19",
"]  c #955919",
"[  c #954D0E",
"{  c #AB5904",
"}  c #97621B",
"|  c #93680F",
" . c #AC6B13",
".. c #815523",
"X. c #845C24",
"o. c #8B5C23",
"O. c #835C2C",
"+. c #885B2C",
"@. c #825D37",
"#. c #925726",
"$. c #8C632B",
"%. c #8A6528",
"&. c #936323",
"*. c #93662B",
"=. c #996928",
"-. c #987429",
";. c #8B6433",
":. c #886638",
">. c #936A33",
",. c #966B36",
"<. c #9B7334",
"1. c #977539",
"2. c #89713E",
"3. c #A36C26",
"4. c #A6752A",
"5. c #B2792A",
"6. c #A37534",
"7. c #A47A3C",
"8. c #A97A36",
"9. c #B57C34",
"0. c #AE6D2D",
"q. c #A35724",
"w. c #C6750E",
"e. c #CA7A27",
"r. c #886A46",
"t. c #946C46",
"y. c #8A7346",
"u. c #987747",
"i. c #897458",
"p. c #997B56",
"a. c #8A6B52",
"s. c #A47B43",
"d. c #A77D47",
"f. c #AB7A50",
"g. c #8A796B",
"h. c #8F644E",
"j. c #AA833A",
"k. c #B78639",
"l. c #B88A2D",
"z. c #B88715",
"x. c #D28714",
"c. c #C68528",
"v. c #C68B39",
"b. c #D28F2E",
"n. c #E6A732",
"m. c #9B8458",
"M. c #97844F",
"N. c #A98547",
"B. c #B58A47",
"V. c #BB9347",
"C. c #A88856",
"Z. c #B48D55",
"A. c #AC9458",
"S. c #B79759",
"D. c #AD904D",
"F. c #BBA059",
"G. c #93856F",
"H. c #A78A65",
"J. c #AC9467",
"K. c #B59867",
"L. c #A99576",
"P. c #B79B75",
"I. c #AD8D6A",
"U. c #BAA16B",
"Y. c #B9A478",
"T. c #B5AA73",
"R. c #C69647",
"E. c #D49949",
"W. c #C49956",
"Q. c #CA924B",
"!. c #D8A54C",
"~. c #CAA458",
"^. c #D6A755",
"/. c #D3B255",
"(. c #E7B758",
"). c #EBB053",
"_. c #C59E66",
"`. c #C8A866",
"'. c #D9B56A",
"]. c #C5AB7B",
"[. c #C4B47A",
"{. c #D7BA78",
"}. c #D5AD6C",
"|. c #EAB864",
" X c #EBB66B",
".X c #E79E47",
"XX c #F4C55E",
"oX c #EAC669",
"OX c #F7C869",
"+X c #F6CA77",
"@X c #FBD473",
"#X c #FDDB74",
"$X c #FBD97B",
"%X c #F2CE72",
"&X c #FEE47D",
"*X c #DBC36B",
"=X c #7D7E81",
"-X c #7F8182",
";X c #818284",
":X c #858688",
">X c #87898B",
",X c #8A8C8D",
"<X c #888884",
"1X c #8C8F91",
"2X c #8E9193",
"3X c #919395",
"4X c #939699",
"5X c #96999C",
"6X c #999B9D",
"7X c #918884",
"8X c #B69B85",
"9X c #A89788",
"0X c #B8A68B",
"qX c #B9AC98",
"wX c #9B9EA1",
"eX c #9EA1A4",
"rX c #A1A4A6",
"tX c #A3A6A9",
"yX c #A5A9AC",
"uX c #A9ACAE",
"iX c #AEACA2",
"pX c #AAAEB1",
"aX c #ADB1B4",
"sX c #B5B6B7",
"dX c #B9B0A5",
"fX c #CAB587",
"gX c #C6B797",
"hX c #CCB28D",
"jX c #C6B8AB",
"kX c #F1BF89",
"lX c #D8C48F",
"zX c #F8DA85",
"xX c #F5DB96",
"cX c #E9D18E",
"vX c #FDE686",
"bX c #FEF28D",
"nX c #FBE698",
"mX c #FDF497",
"MX c #D7C9B7",
"NX c #D3CAB3",
"BX c #E7D5AD",
"VX c #FBEBAD",
"CX c #DEE0BF",
"ZX c #C5C6C7",
"AX c #D6D7D8",
"SX c #D1D1CF",
"DX c #FBF2CE",
"FX c #FEFEEB",
"GX c #E3DFD1",
/* pixels */
"FXhXu X &.9.4.5.v.5.5.v.!.).:.sXSXW.@.; 5.b. .y ' / p a.BX}.{ E.|..Xc.c.^ z ^ S.lXu.} } =.p 0.>.~ f.DXxX&X#X@X).xXmXbXbXbXbXbXbX",
"cX`.y.i _ s ) ] =.~ `.{.`.c.jXgX}.+XlXl P.VX'.}.W.:.: 8. X).c.Q.E.v.b..X}.F.6.=.p.+.y ~ ) ~ !.S.D.oXVXxX#X@XzXnXzX#XvXvXvXvXvXbX",
"b.`.m.4 p X s 8.k.] S.J.C.c.jXjX8XW.BX8X0XhXS. X^.6.! &.^.OX(.!.E.'.|.+XBXK.3.( - 7 9XI.O.d.^.S.`.#X&X&X%X%XzXzXOX$XnXzX$X@X$XvX",
"K.K.y.& 9 , 7.^.!.k.^ 4 1.{.s.jXaXw 9XSX9X. 8 !.'.W. .w fXvXcX/.|.+XvXnXCXp.=.1.@.: gX0Xt.K.Y.K./.$XvXvX$X@X+X!.OXnXVXzX@X@X@X&X",
"A.%.6 8 * 1.W.!.k.=.^ -.Y.NXc i.fX}.= jXdX@.,.R.MXjXs.& 8XBXcX .R.|.%XvXVXdXL.~.U.3 x *._ i.ZXhXn.&XnXVXmX&XvX@XOX X X X+X#XvX#X",
"z p i t t -.z.~.gX0XS.Z.J.a.x D.D.c =.K.Z.2.q 7 I.BXMX{  XnXvX*X^.v.v.{.VXzX!.9.l = p.C.9.|.H.Q.XX&X&X&X$X#X#X#X(.^. X X&X@XOXvX",
", i d ) x lX}.4.G.m.d.7.>./ =.8.%.5 _ -.P.L.k s.*.9XjXJ.K.T./.n.b.b.w.Q.].N. .3.9._. XE.e.v.6 5.XX&X@XOX(.|.@X@X(.^. XzX@XOX+X$X",
"' s y ` N.lXY.y < ~ u ' -.N.>.` } =.4 z H.L.x M.l q S g.g.g.M.-.o.( ( y > - ; ( v. XE.b.w.b.} v.XX#X#X%X|.OX@X@X|.|. XzX+X+X@XOX",
"l.-.p l v.4.u d ' =.u -.S.S.&.u =.8.a 1 6 a A h b n H >X2X>X=XL W m n w V c h q ..{ ! 0.b.)..XXXXX%X%X$X@X@XOXOX|.). X XxXzXOXOX",
"X z <.j.t p ` -.&.` u A.{.k.4.| d 8 + o O g J -X3XwXyXpXyXpXyXyXtXeXwX6X2X:XY H F m g q O f k z -.N.F./.'.)./.|.|.).|.+XvXvX&XvX",
"k / U.gX7X. u j.*.1.1.M.A A j O j D I -X1X5XeXeXuXuXpXyXyXpXyXpXuXuXuXuXpXyXtXeXwX6X4X3X1X:X-XG.<X-XS g + O C S '.).).zX#X&XvX&X",
"p y p.9XlX0XM.2 + 2 O o g J Y >X2XeXeXuXyXpXpXpXuXuXeXyXyXyXyXyXyXuXuXpXpXpXpXpXpXpXpXuXpXpXpXeX5X-XM # b F J g B.). X+X!.!.oXXX",
"4 :.c y }.cXv # n b # % # P 2XeXpXaXpXpXuXuXyXyXtXtXuXtXyXyXyXyXtXtXyXtXyXtXtXtXyXyXuXpXpXpXpXwX<XP B F R :XR c e.+XxX`.0 ~ e.v.",
"7 T.T.x x : $ W 5X1XI G n g b B H -X2XeXyXpXpXpXuXtXyXtXyXyXeXyXtXuXtXuXyXyXuXtXtXyXpXpXeX,XJ # @ M T -X,X-XG u.!.nXCXQ X & &.^.",
"&.z c z z ^ $ J eXaXyXeXwX2X-XL M b # b B I >X5XtXpXaXaXpXpXyXyXtXtXtXtXtXtXpXaXpXpX4XU m # b H -X-X-XL Y =XV B.!.R.Z 0 < ] 9.8.",
"' a t a } | O W eXpXuXuXyXyXeXwX4X,X-XI G B M M F L -X2XwXyXyXaXaXaXpXpXpXpXuX5X:XH m b M H Y =X-XP F n L =Xg l.E.=.X &.6.5.5.3.",
"t 7 d %.-.} + B eXeXpXpXpXpXaXaXaXpXpXeX5X>X=XG F m M F H =X-X4XwXwXyXyXwX2X;XJ b # b W =X:X;XY L G B M U T # I.f...l 6.9.9.8.k.",
"i c y.j.-.} , B eXpXyXeXyXyXyXyXeXyXpXaXaXaXaXyXwX4X=XG m # # b F L =X>XU b . . b P ;X>X;XY L G P -XY P T U g iXa.5 ;.&.+.*.j.!.",
" .0XY.%.u z.2 V 5XaXeX-XU 2XeXeXuXuXyXeXyXyXyXyXyXpXpXyXeXwX1X=XF b % . . . M =X;X:X;X;X=XI =X;X,X-XU I T U P 0X@.> l < - t 4.v.",
"V.S.C.` | (.k V 5XaX4XY L ,X>X2XwXeXyXyXyXyXyXyXpXpXpXyXyXyXyXeXwXwX=X% . G =X:X;X;X;X;X;X;X;X;X-X-XU R T K V c f.Q.S.Z.lXP.=.-.",
"V.R./ ..[.%Xv V 2XaXeX:X2XeXwXeXwXtXyXyXyXyXeXwXwXeXyXyXpXaXpXpXpXaX1X# b =X>X;X;X;X;X;X;X;X;X;X-X-XY =XY D ; & >.d.d.`.[.T.L.L.",
"B.R.d.I.BX'.d V 2XaXeX2XwXaXuXuXyXtXyXyXyXtXwXwX3X2XwXwXwXtXtXtXtXpX-X@ F ;X:X=X;X;X;X;X;X;X-X-X-X<XT -XP C c d i = 9 S.1.i.G.L.",
"d.[ P.BXgXk.u C >XaXeX2X2XuXtXyXyXyXyXyXyXyXyXtXwX,X=XI I =X2XtXyXpX-X@ W ;X;X;X;X;X;X;X;X;X;X;X-X-X=X-XH $ p ` p 8 a #.` a l ,.",
"d ' &.f.kXM.2 h :XaXeX2X4XuXyXyXyXyXtXyXyXyXyXyXyXuXtXwX2XF F wXpXpX=X@ J ;X;X;X;X;X;X;X;X;X;X;X<X-X-X-XJ f p z 6 i &.y B.~.[.Y.",
" .] ~ ' D.*.X h ;XaXeX2X4XpXyXtXyXyXyXpXuXuXpXpXuXyXuXtXpX1X=X4XpXpX=X@ P -X-X-X;X-X;X;X;X;X;X;X;X;X;X>XJ 3 ` ] <.<.$.- ..2.u.i.",
"0.5.q.7 / =.<.A =XaXeX1X2XuXyXtXyXyXyXwX3X3X3XeXtXyXtXuXsXrX1XwXpXyX=X@ =X-X>X-X;X;X;X;X-X;X;X;X;X;X;X:XE C :.3.5.6.t.m.e & - & ",
"#.9.6.6 u 8.R.a.U aXrX2X3XaXyXyXyXtX5X4X=XL ;X,XwXuXyXtXyXwX5XwXpXyX=X@ =X:X-X-X;X;X;X;X;X;X;X;X-X;X:X:XK g.h.=.3.&.u.[.x < p k ",
"5.&.( d ) ' &.k P uXtX3X3XuXtXuXyXwX>XsXpXeXZX3X4XrXuXyXuXtXwXtXpXtXP # =X-X>X-X;X;X-X;X;X;X;X-X-X-X:X;XS X.=.d.N.6.+.9 8 < l N.",
"..j.j.] } 3.] 3 H pXtX-XU tXuXuXwX2XZXAXSXZXAXuX=X>XaXyXuX>XT wXpXtXI b =X:X=X:X;X-X;X;X;X;X;X;X-X;X<X=XA _ ^.Q.4.s x H.- 6 s 4 ",
">.<.j.N.~ v.W.A J uX6X;XU T yXyX2X:XZXpXsXSXAXZX2X,XtXpXwX1X>X6XpXwXI b :X=X;X=X;X;X;X;X;X;X;X-X;X;X>XR Z 0 .Xc.' 2 x p.0XM.A 0X",
"j.z 2.y.l lX{.y.J eX5XwXrXU tXeX>X=X3X=X-XrXZXSXsX5X4XaX4X5XwX3XpXwXI n :X;X;X;X;X;X;X;X-X;X;X;X-X;X>XU h 4 w.l.j.$.z 2 fX[.U.lX",
"1.-.| %.p.GXlX} J 2XeXZXSXaXrX3X1X:XG wX:XB wXAXZXwX,XsX2XwXeX3XaXwXI m :X:X=X;X;X;X-X;X;X;X;X;X;X-X>XP C & [ /.(.E.:.O 2 {.cX4.",
"` 1.A.Y.Y.BXzXM.F wX3XaXAXAXyX-X>X2X1XsXrXI ;XSXsX1X,XaXwX1X3X5XaXwXL M :X:X=X;X;X-X;X;X-X;X;X;X-X;X>XH E & l b.n.)./.W.7.0.6.[ ",
"' *.y.p.C.}.oXu.N yXwX3X6XuX2X1X3X3X=XeX=Xb 2XZXwXY 1XpXtX4X1XwXpXwXL F :X=X;X=X;X;X;X;X;X;X;X-X-X;X>XJ A 6.e ( { c.^.fX6.! {  .",
"%.` a +.C.C.^.2.M yXuX,XY 2XeX5X3X3X>X;XH -XsXAXtX=X5XuXuXwXwXtXaXwXH F >X:X;X;X;X;X;X;X;X;X;X;X;X;X>XW S 9.5 < < 5 ,.Y.Q.0. .e.",
"%.` x :.D.C.~.2.M tXuX6X2XtXaXeX1X3XsX3XwXZXAXAXpX4XeXpXtXpXpXyXaX2XH F >X=X=X;X-X;X;X;X;X-X;X;X;X;X:XF i.;.t.r z z f A `.E.w.c.",
"-.*.$.:.A.A.`.M.B rXuX3X1XpXuXeX5X9XAXAXAXSXsXsX3X4XpXtXtXpXyXtXaX2XL G :X=X=X=X;X;X;X-X-X;X;X;X;X;X:XN q H.jXq 2.K.m.& g.W.b.x.",
"i z 6 i.SXL.V.%.M tXuX2X-XpXyXuXrX1X;XyXAXAXwXI 4XuXpXtXuXrXwXuXaX1XL H :X=X=X;X-X;X;X;X;X;X;X;X;X;X<XN A p.@.0 Z.W.7.- e <.c.c.",
"1 p 6 A lXH.j.s M tXuX2X-XyXyXyXuXwXI >XpXaX>X,XeXpXtXpXrX;X-XyXaX,XH L ;XU =X;X;X;X;X-X;X;X;X;X;X;X<XM c 6./ ( s.9._ 3 < y &.3.",
"a d a &.k.j.} d B tXuX,XT yXyXyXuXuX6X,X>X1X4XyXpXtXtXpX3XT -XwXaX,XH I =XI =X;X=X;X;X;X;X;X-X;X;X;X:XM k <.4.' ] 0 1 8 8 8 d &.",
"..s %.-.b.} ) v M iXuX<XP eXpXpXyXyXpXuXwXwXpXyXyXtXyXyX1XwXtX5XaX,XH I =XL =X=X=X>X=X:X;X;X-X-X;X;X-XB k *.6.%.l 0 2 8 1 l *.=.",
"9 8 s -.-.c.l.A N tXaX2XJ U 4XeXuXuXyXyXpXpXyXyXyXtXyXyX,XwXwX4XaX>XF =X=XL =X=X=X=X:X=X;X;X:X:X<X:X>Xm , >.F.S.O.= i i 1 ..=.*.",
"7 p Z.'.V.*X~.s N rXuXtX5X1X-X-X1XwXwXuXyXyXyXyXyXyXyXyX1X3X5XwXaX=XJ =X=XJ =X=X=X=X=X:X;X:XR R :X>XY C x 6 / ` 0 8 8 i ; -.k.j.",
"5 6.V.V.8.{.~.p F yXyXuXpXeXeX4X2X4XwXuXyXyXyXyXyXpXyXpXwX1X4XtXaX=XF =X=XL =X>X=X=X=X=XI H B F I P h r.;.y.fXm.e 5 ..o.* | l.j.",
"y 4.j.x ;.V.V.x N tXuXyXyXuXaXpXyXeXeXtXyXeXyXeXtXyXyXyXyX3X2XuXaX=XH =XP H =X=X=XL L G V $ % # g w 9 ] [ Z.xXfXM.;.4.4.9 m.F.-.",
"=.1 x U.S.R.v.z # >XtXpXyXtXrXuXaXaXaXuXyXyXtX4X2X2XwXeXuX2X,XuXyX=XG =XP J J J G L B g q 1 q w + 8 ,.s.B.9.{ ^.{.].4.5.,.qXgX* ",
"` D.D.z u 8.l.j.y.V G 6XaX3XH I ,XeXuXpXaXaXyXyXwX4X>X:X;XJ U pXyXP F =XP b m L =Xm h J.BXy.; * e z k u `. Xc.o.:.1.4.9.k.S.J.z ",
"6 1.x c J.C.-.j.1.%.C K g.J $ # F D H =X2XeXpXpXpXtXwXwX2X-X1XpXaX=XF =X=XF =X=XG g y gXVX{.].Z X @.Z.<.7.Q.Q.Z.z ; z 9.k.} y.T.",
">.d 1 :.0XA.<.*.-.1.y 1 j C . 2 @.k f c K g.>XwXyXpXpXuXrXwXrXyXuXI F =X;X;X,X;XF p <.gXBXXXzXJ.l *.W.,.d.K.Z.N.@.k %.3.3./ 1.P.",
"A.1.s ;.A.N.s %.N.1.a l L.NXC %.s.,.&.W.U.j + G 1XeXyXpXyXpXpXyXyXL N -X:X;X>X-XF N.A.U.F. .).`.N./ 6.y `.lXB.; %.N.<.~ ( 8.l.{ ",
"m.p.,.;.*.s a a s $.| z L.ZXa.~ @...7 ].cX{.' i q T aXpXuXyXyXyXtXJ B -X:X<X-XG q N.D.1.y ' V.j.o.y ,.} Z.K.#.( k.9.6 i d -.5. .",
"K.u.%.z %.D.:.t <.7.7 i 0XDXP.a 4 X.` >.lXcXK.l p D 1XeXyXpXpXpXpXG N ,X;XH b k 8.<.1.*.' >.s.<.*.%.X.*.<.&.5 ~ / u & 6 3.5.} ) ",
"U.J.y.y %.N.1.*.8.-.z 2.Y.BXY.p.2.) X.^ Z.U.C.y i i.S N I :X3XwX5XB n I N g X 8 6.p ..,.2.z z O.7.B.&.7 I.9Xr P.~.b.z.k.R.,.7 3.",
"].U.u.7 d 6.j.k.j.} :.y.u.D.C.J.p.+.u.s.,.$.| ' z H.I.w o $ V H H b # h o 2 X...7 z 2 x :.- - d 7.V.B.y 8XgXk [.xXxXxXBXfX2.4 q.",
"fXu.t X.^ N.D.D.B.k.s 6 &.j.<.o.X.f.P.d.Z.I.^ B.%.l C.lXu., , O . . . < p p D.v.&.S.x * 8 8 9 ..=.6.W.V.5.{ t 5 SXFXFXFXgX=.7 q ",
"o.d z ` u W.`.W.6.) 6.8.6.4.S.1.,.Z.;.s.u.z a +.7 i.0X8Xx 4 #.0.q.~ 5 0 z z `  .c.<.C.1.6 8 < 9 ` 4.!.|./.<.= Z CXDXxX_.t.a < 3 ",
"fXC.%.%.o.V.S.N.l.*.v.k.*.&.=.&.8.B.s %.N.V.<.z > g.jXdXZ > q.e. .8.+.a l :.s.s.7.<.`.M.9 u.@.k x N.k.Q.j.%.+.9 ].cX/.y ~ =.&.a ",
"fXA.1.x >.8.N.B.Z.C.B.3.d ( f.u.%.&.` ' k.R.7.l > h.8XdX@.5 !  .e.f.;.( a s.f.@.O.<.N.A.A.H.x q u._.=.' ) ) X.a v.oXhXr.p ' o.a ",
"5 =.7.;.;.7.W.`.C.H.7.&._ ( ].H.x 7 _ =.6.6.+.x h.f.f.f.q.~ ( 3.f.,...d _ s.@.@.u.*...Z.}.m.O 1 N.`.0 6 X.%.6 x V.lXNXg.l , , 9 ",
"i 4.9.3.~ K.gXY.7 - u.Z.u.^ X.Z.C.: a ;.<.,...;.hXGXZX! 3 3 p 9.8.>.+.$.,.p d I.fXe 8X].<.: y s 0 8 t < ;.j.d 1 | } d 3 2 2 2 i ",
"u R.E.N.t.J.I.r.= < p X.>.1.1.:.k c P.7.*.t.@.r.u.Z.I.> >.<.$.:.N.a :.J.@.0 < r.H.i r.hXhX= a a 6 1 8 ; <.N.a z } )     1 2 k p ",
"r.Q.E.B.t.K.I.r.l :.x p X.d.;.` :.p._.5.=.t.p.p.L.P.d...*.6.u.u.;.:.d.u.8 z 4 z C.c * G.0Xt.q 8 i i 8 8 u / z 1.4.|     c e 7 u ",
"t.N.B.9.:.I.H.i.u.H.t.p O.1.p ` y.p.3.3.3.t.p.H.gX0Xf.d.4.>.y.u.8 ;.C.C.l ` O.u.C.k * x p.H.q 4 i i i 6 a.g.A 1.V.8.&   r.i.r.u.",
"X.' ' ;.t.<.5 q H.J.@.6 z 2.9 8 < 4 >.,.,.( 7 H.I.,.[ E.W.>.6 8 p = p.hXs.y p.K.d.6 8 t a q.9 2 9 9 l X wXNXA t F.D.- u.y.J.L.L."
};
