/* XPM */
static char *_97bd07679674e98d15ed638f28ce74dDXoPZKyyhAKUurYV[] = {
/* columns rows colors chars-per-pixel */
"64 64 92 1 ",
"  c #363635",
". c #383835",
"X c #3D3D3D",
"o c #403F41",
"O c #444444",
"+ c #464847",
"@ c #494947",
"# c #474849",
"$ c #4B4C4C",
"% c #4F504F",
"& c #51524F",
"* c #4E4E51",
"= c #504F51",
"- c #4E5050",
"; c #545454",
": c #585756",
"> c #565957",
", c #595957",
"< c #565758",
"1 c #57595A",
"2 c #5C5C5C",
"3 c #605F5F",
"4 c #5E605F",
"5 c #61615E",
"6 c #5E5F61",
"7 c #605F60",
"8 c #5F6061",
"9 c #636464",
"0 c #686766",
"q c #676867",
"w c #696966",
"e c #666669",
"r c #676869",
"t c #6B6C6C",
"y c #736E65",
"u c #706F6E",
"i c #6E706F",
"p c #7C7263",
"a c #73716D",
"s c #79746D",
"d c #7D786D",
"f c #6E6E70",
"g c #706F71",
"h c #6F7071",
"j c #737374",
"k c #797674",
"l c #767877",
"z c #7B7976",
"x c #767679",
"c c #78777A",
"v c #777879",
"b c #7B7B7C",
"n c #827D75",
"m c #807F7C",
"M c #7F807F",
"N c #858076",
"B c #83827D",
"V c #89867E",
"C c #7E7E81",
"Z c #807F81",
"A c #7F8081",
"S c #838384",
"D c #898784",
"F c #878887",
"G c #8A8986",
"H c #868689",
"J c #888789",
"K c #878889",
"L c #8B8B8C",
"P c #908E8B",
"I c #8F908E",
"U c #92918D",
"Y c #98958F",
"T c #8E8E91",
"R c #908F92",
"E c #8F9091",
"W c #939394",
"Q c #989795",
"! c #9A9996",
"~ c #969699",
"^ c #98979A",
"/ c #97989B",
"( c #9A9B9C",
") c #A09F9C",
"_ c #A2A19C",
"` c #9D9EA1",
"' c #A09FA3",
"] c #9FA0A3",
"[ c #A2A2A5",
"{ c #A9AAA6",
"} c #A4A5A8",
"| c #A9A9A8",
/* pixels */
"BSET~WRLKFLWIDVVLDFWWW(^WRWER'[(~WWULK~'}[[`}}[['~(`~(`^(~((P^[[",
"SSKW^WLZDDSWWVVFLLWWKKTWWTTR~'['`WPKW(^(`}}}'}[}[)[^Q['[['[(^W'[",
"bSKWRTSmDDbBUGGGLKWWKJTWWHTW/`''WWW(~^`WW~((``[}}([^^(([('[()[}(",
"bSTLTTSDSDKLUPPLDR/^((WW~HKTW(WW~`'`~//WLKWQ('([W(]((`_(W^('`(((",
"bCTTHJZmNVDIWGVDWW~WW`WW~TT```PRT`''''``(WKWLI]]Q(((^^(RW(`(((_(",
"KLTTHHSZbMBIIBDLLRWW~^TRRTT``RPJRW```'`WLQWUFI//QLW(['(LP(`(([(Q",
"LTRT``CCBBSBGGBKW)~RWWPRHHTWWLPGWTW~~```WW!UQWWQ!!P([[(LW(^WP(((",
"TKJTRTZZDGVDDBIIP(^WTJKLWWKTTTPDRL~WT`''(I((((((QWQDWWQWW(([[[(Q",
"JLKTWLSKLILGIGWLKLWTTKJ`]}[ELKmVLPW(U`[}WG(UDL/!)]]WGYIWW!'[}[)^",
"LWLKDSSLGbFKLIELRTWWW``[}}}`WLKLUWL^P_[(QGUYWW(Q((/!!GN!LW['}Q'^",
"LWEKKbALMFALLIGLU(WLLW`'}]}[^KSbD(P(Q()QIYUDUQ//(!(])!VGU()Q([(W",
"WWWWHDL~!!ELIGDGKQ(QKS```}[}`~R`DUW(!(!QUIVVQUQQEVGW(!!YUUPUQWWQ",
"RWRLSDEWQIEILFNVnBLLS`}]````TTTRRT`LKFQYQUVVGUPQW(/WIGPVYPYGPGGP",
"~^~PSSSDEW~ILBzzBnscE`]``T``WTKZW~WDLGULGQVDGVFK(]_/IIDGPUPUFGGG",
"^(~TSASDDSELFDBNVnCT``}~LPTWWL(~(((EFFYUDDEWGGUQQ]{QGIYP_PPPYYPP",
"RTLLLLDSIFLEDLNVVLL``]`LDDSTW~TW/`](LmmBKLbWLQBW}[]~UUV!PVIGVPQU",
"SL^WHHSDDBDLLDndNbb//``HLQBDKLKWW~`~WKHT}}TTCK`[}!Q/QPVPVUPVVPGG",
"HKRHJCKbBbBsSBzBMBL((}]KKTLEK~TH~```WJTW}``W(~`[]WEULDPVVIGVVUVI",
"SHSCbSbSbLDBzDBBDMEW`~]EbLTT`~TE`'`'~WST``WTW'``~KLIEIIUDIIUP()(",
"SHbJLTZSLLzsydsBDkL/WT`~KTC~[[```'```T`W``JT/[`/(DDMGUIWYIE/QWIQ",
"CHLkcTK^DHzdmnnmmSKTW~/`KSSR['W('``~T~}`TTTTL~(]/HKbSmbULI/!W/)W",
"ZHDSTTTTbSGGDGVnDLZZT]```~~R`'WWT``~S`'`W~THLEW/`WEHITKSLQKK]!(Y",
"bbZSRTZcZZnzVVsppmCt~]`]`T~T~'(!`'`TR``[}}~~/EEW/(THWSLELLAbS!]U",
"ZSjJxSHZmjmzmnsZzmCC~/}]``LTLT((`RTTT/`'```WE/QSWWWWULQQUFLLSlPz",
"fgxjCCZZCZZZgZcZmmSRHKR``TTTbLWLTZLHTT}(E~LE](LKKETLLEWDFDSLSSkm",
"bKHSCZZ~~ZZTCCZZDSDSxCT`THWSDDSbbTTLKW}(W(/~~LW~KKSDDE/WSKKDJKFL",
"CCSSCCZ~~TZ~CCCCcSKH~RT~WRnSSDKW^WTRMU[!!]~WWLLSIEKEWTTEKPWKCZPz",
"THKCC~~`~~RZTZZZWLTL``HCJDLLSSZW^WRLE({_[}WW/EFSLDDWLbC~LDJMcDaz",
"TCCCTC~`R~~~Z~~~/~JW`~HTSbbcSSL(EAHK/`}{|}]TSLKTbDWLDSKLQLBFDILL",
"CxCTZZZ/Z~/TZ`~~WR~~~WTT/~W~(((WW~EHKW]{||]KKEE/KSDKKLLWLKUDLGLK",
"eCTRTTTT``~C````^WRW^`~~W~((WE~LWWAAT/`]]!]`~WTLTWELLLLSDmSbBFGK",
"CCZTTTCZZZTHZZCCTT~~W````^`~ELHWWETEL~``/(`SHCSTTKTERLHDLmmmkbUG",
"TJH~WRTCAKHLScHRTTTTW~W`WT`^WWWRTETW```~~~~~ETKETTLWUWLbSDBSLFSD",
"CCHR~TKCTSDKHRWTWTTTJWTRW`^~`WTJL(WWTT`TTEE`EjLWE/~DSWWQDHKWFL/W",
"ZTWLJHcSKKLWSJSSRTCTW~TH~`W`WWKTEtcHTTTTKKH//EHCQWHLDCWUKBS^PKKU",
"ZTWRTTTKKLHDHHHTRZCZT~TcTZTWTTKZAW/WTTKCCjSEW/KTLLKLKEIQTKZaAmSK",
"HHCCCTHKSCDASxSHH~``TH/`RRWTHKCHT~`~CCCKLEDKKLAjDKFSKQLLKSFjtcDD",
"THHTWTZSHCACSSHTWWWT``WTRRETWRTHCATRCT~RbbSbbADAADFIULWLDDFUDcDC",
"ZZHTKLLKCcWERWWTHZWTTJTKCJTSKKKTTCCRTHKCASScASBAKKSzjZSFWLKWLLCS",
"JgxxTfxCbbSjLSCSHTTRTWJTWTTTKT/KHTCCCCxHLLSMjvbBMSLKDADSLxtwbKDS",
"CZCCHCCZDHCHAHCfHgLT(LAWWLSACWTKCTCCHCAHSASHAjjtMSBcbDDKbDSSSMMM",
"ZCCCCZHSSbSSSHHTRWJHbbWLcSSKHWKKTCCTTTTSCvSSccbDskbbbbblmSADAjtk",
"ZffCCCxfCAjcbCALLJZSSSHSjAHHKSCxCtCCKHSMBcjSHAjwjitbSBjkzabBbhDb",
"ZCHCjgSZffbbtfHbZHHHTLHCKCKSKCLSTCCCDZZbbjjbcbtjwwajADbajSbvbDBk",
"xcbSCxZKxCCf9tSHSTKKScHSLLjCCCHCCCSb8ecbqkvMl8AKMbjzjlbbx2tbSlAb",
"KbcjffCCcCCjHCHT~TTASCHACbAcALHee6AHCAb;;2ivvSDr4cAcjcjquj09$wwb",
"C9chfCbfxbjbSLCCxfCjhbttfvHHHtehCCxHHLHbMblllDjSbbhbczSjkjtw9tju",
"xCjcbcgCjcCCbZxLSxACccwbjjvCcchbCxCrer9fDSlkjt9it29jcgjutjcttw2j",
"7CbSCfffffcbe60bcvSSAbAjeh9vMKEKSSj9h8jKKr2fjjcjjlvljjfzjBjckthf",
"Cfg2ggjCftcgttttwSbtv09ejfecjlcbbvwhjCAASxfcvbljjjjjj9t21;vAMjji",
"CctcttCgcg769jCbbif;2errjCAjilkt89rjhw8e<99fft9tjbb9&20wtt009jht",
"9tttfbe79tttbjjt22;wet2hjcvj9i2qj99rt2862<ttttvtht5tjvbcklw6r8rw",
"Cxfggfe6$ejj0fhhhr9204teef9hittrjhrr29ffrrfrtjtjltr4cttjcj92ht99",
"jggte6;6jtthvcje98jr9rhfjetjiihjfeq9rjrefffe9tjhj9rztj9i092;986w",
"776*6f96tjvt8htee92ewt2htir5:949jvvbjhheefShilbt5tq4wq8qwjj02ect",
"e77Cgetet00;900ttj99fwr9rr42atq9228teeffe28jctkjrq24;029990k9;23",
"69xef9teew8jhtril9i988f6>,wwrr29rt899qqtj82229r2aqbclait0tw00%;>",
"6;1686;28e0t889288>2992hjiqih969988192%22eh922;22;;;242jj$2a00:9",
"992efferwt2;qt9tt188rr88t4q09tihr811;$1q2etjAb4#$&&;982;992;tjj0",
"2e6*<*8r9960trjjh9er9hvh,;2;rhrrfe6112>$ttcw;:hr9>tjtqt8;22;;:2%",
"662628299>4928h2*2e6twt9qiq22211<6;-;2r2#;#%$ O$2i;&2w;.O;202@$$",
"22,290e8212ti;416668r9;%ti496<8<****-1#-#o#$$#X%%;tw5:$@O%2a; X.",
"2;;222q0thq41>%>8e8rr842>9921<661;1-$$#;$$<-;;01$O>&q2@;,,&w9229",
"=<,2>22294qit299r6<92289499qe2;;61-$;oo<8;-+*-#OOOOO@@X%@$XO5;O&"
};
